G04 #@! TF.GenerationSoftware,KiCad,Pcbnew,(5.99.0-8748-g0125986588)*
G04 #@! TF.CreationDate,2021-05-21T22:54:23+03:00*
G04 #@! TF.ProjectId,Unified-Daughterboard,556e6966-6965-4642-9d44-617567687465,C3*
G04 #@! TF.SameCoordinates,Original*
G04 #@! TF.FileFunction,Copper,L2,Bot*
G04 #@! TF.FilePolarity,Positive*
%FSLAX46Y46*%
G04 Gerber Fmt 4.6, Leading zero omitted, Abs format (unit mm)*
G04 Created by KiCad (PCBNEW (5.99.0-8748-g0125986588)) date 2021-05-21 22:54:23*
%MOMM*%
%LPD*%
G01*
G04 APERTURE LIST*
G04 Aperture macros list*
%AMFreePoly0*
4,1,184,0.894083,0.285396,0.162643,0.284604,0.148215,0.280620,0.140689,0.278330,0.125966,0.272283,0.113823,0.264855,0.104221,0.256019,0.097122,0.245749,0.096154,0.243975,0.095065,0.242029,0.094077,0.240196,0.093185,0.238338,0.092383,0.236315,0.091667,0.233986,0.091032,0.231212,0.090474,0.227854,0.089987,0.223772,0.089566,0.218826,0.089207,0.212877,0.088905,0.205785,
0.088655,0.197410,0.088453,0.187613,0.088293,0.176254,0.088170,0.163194,0.088081,0.148292,0.088019,0.131409,0.087981,0.112407,0.087960,0.091143,0.087954,0.067481,0.087956,0.041279,0.087962,0.012397,0.087967,-0.019302,0.087968,-0.035011,0.087970,-0.065453,0.087973,-0.093142,0.087983,-0.118217,0.088004,-0.140816,0.088041,-0.161079,0.088097,-0.179143,0.088177,-0.195148,
0.088286,-0.209231,0.088427,-0.221532,0.088606,-0.232189,0.088825,-0.241342,0.089091,-0.249127,0.089407,-0.255685,0.089777,-0.261153,0.090206,-0.265671,0.090698,-0.269377,0.091257,-0.272409,0.091889,-0.274907,0.092597,-0.277009,0.093385,-0.278853,0.094258,-0.280578,0.095220,-0.282323,0.096276,-0.284226,0.102003,-0.292642,0.111022,-0.301664,0.122093,-0.309466,0.134767,-0.315738,
0.148591,-0.320169,0.149299,-0.320338,0.151761,-0.320894,0.154316,-0.321409,0.157079,-0.321885,0.160163,-0.322323,0.163683,-0.322725,0.167755,-0.323092,0.172493,-0.323425,0.178011,-0.323727,0.184424,-0.323999,0.191847,-0.324243,0.200394,-0.324459,0.210180,-0.324651,0.221320,-0.324818,0.233927,-0.324964,0.248118,-0.325088,0.264006,-0.325194,0.281706,-0.325282,0.301333,-0.325354,
0.323001,-0.325412,0.346825,-0.325457,0.372919,-0.325491,0.401399,-0.325515,0.432379,-0.325531,0.465973,-0.325540,0.502296,-0.325545,0.541462,-0.325546,0.894083,-0.325546,0.894083,-0.454326,0.523926,-0.453788,0.487637,-0.453732,0.447892,-0.453663,0.410961,-0.453591,0.376767,-0.453514,0.345233,-0.453431,0.316282,-0.453344,0.289836,-0.453250,0.265818,-0.453149,0.244150,-0.453042,
0.224755,-0.452928,0.207556,-0.452805,0.192475,-0.452675,0.179434,-0.452535,0.168358,-0.452386,0.159167,-0.452228,0.151784,-0.452059,0.146134,-0.451880,0.142136,-0.451690,0.139716,-0.451488,0.129032,-0.450053,0.100521,-0.445150,0.074518,-0.438966,0.050879,-0.431444,0.029459,-0.422527,0.010114,-0.412157,-0.007300,-0.400278,-0.022926,-0.386832,-0.030704,-0.378898,-0.042344,-0.364820,
-0.052076,-0.349726,-0.060136,-0.333172,-0.066762,-0.314711,-0.072189,-0.293898,-0.075501,-0.278953,-0.075501,-0.000861,-0.075498,0.030031,-0.075491,0.058179,-0.075478,0.083719,-0.075459,0.106786,-0.075432,0.127516,-0.075396,0.146044,-0.075348,0.162506,-0.075289,0.177038,-0.075216,0.189776,-0.075129,0.200854,-0.075025,0.210410,-0.074904,0.218577,-0.074764,0.225492,-0.074604,0.231291,
-0.074422,0.236108,-0.074218,0.240081,-0.073989,0.243343,-0.073735,0.246032,-0.073454,0.248282,-0.073144,0.250229,-0.072805,0.252009,-0.071402,0.258470,-0.064639,0.281934,-0.055649,0.303459,-0.044427,0.323062,-0.043823,0.323961,-0.037047,0.332809,-0.028538,0.342284,-0.019054,0.351632,-0.009353,0.360104,-0.000191,0.366948,0.019103,0.378489,0.041682,0.389062,0.066269,0.397774,
0.092960,0.404651,0.121848,0.409723,0.153028,0.413017,0.153298,0.413029,0.156133,0.413074,0.161763,0.413121,0.170059,0.413168,0.180892,0.413216,0.194134,0.413263,0.209656,0.413311,0.227328,0.413358,0.247024,0.413404,0.268613,0.413449,0.291966,0.413493,0.316956,0.413536,0.343454,0.413577,0.371330,0.413616,0.400456,0.413653,0.430703,0.413687,0.461942,0.413718,
0.494046,0.413747,0.526884,0.413772,0.894083,0.414030,0.894083,0.285396,0.894083,0.285396,$1*%
%AMFreePoly1*
4,1,250,-0.066911,0.474026,-0.029886,0.474008,0.004963,0.473974,0.037575,0.473927,0.067891,0.473865,0.095849,0.473788,0.121390,0.473699,0.144453,0.473596,0.164979,0.473479,0.182908,0.473350,0.198179,0.473209,0.210732,0.473055,0.220507,0.472889,0.227444,0.472711,0.231483,0.472522,0.237137,0.472068,0.265071,0.469006,0.290460,0.464759,0.313456,0.459297,0.334210,0.452591,
0.334816,0.452364,0.358101,0.442428,0.378810,0.431054,0.396964,0.418223,0.412579,0.403920,0.425675,0.388126,0.436271,0.370825,0.444385,0.352000,0.446185,0.346852,0.448098,0.341211,0.449720,0.336013,0.451078,0.330975,0.452198,0.325813,0.453106,0.320243,0.453827,0.313983,0.454388,0.306749,0.454815,0.298257,0.455134,0.288225,0.455370,0.276368,0.455550,0.262402,
0.455699,0.246046,0.455845,0.227015,0.455901,0.219124,0.456011,0.199114,0.456045,0.181718,0.455990,0.166684,0.455834,0.153757,0.455565,0.142686,0.455170,0.133217,0.454638,0.125097,0.453956,0.118075,0.453111,0.111896,0.452092,0.106308,0.450886,0.101058,0.449481,0.095893,0.448048,0.091184,0.443513,0.079144,0.437945,0.068650,0.430795,0.058772,0.421513,0.048579,
0.408658,0.036859,0.391868,0.024655,0.374014,0.014706,0.355658,0.007361,0.352150,0.006203,0.348261,0.004834,0.346233,0.004003,0.346162,0.003934,0.347190,0.003066,0.350370,0.001668,0.355107,0.000007,0.367310,-0.004652,0.383421,-0.013403,0.397960,-0.024494,0.410787,-0.037750,0.421759,-0.052993,0.430735,-0.070047,0.437575,-0.088735,0.442136,-0.108879,0.442139,-0.108898,
0.442861,-0.115151,0.443453,-0.123868,0.443917,-0.134561,0.444252,-0.146738,0.444456,-0.159912,0.444531,-0.173593,0.444476,-0.187292,0.444290,-0.200519,0.443972,-0.212784,0.443524,-0.223600,0.442943,-0.232475,0.442231,-0.238921,0.442093,-0.239803,0.437360,-0.262045,0.430475,-0.282284,0.421412,-0.300576,0.410142,-0.316976,0.396639,-0.331537,0.395515,-0.332578,0.379667,-0.345468,
0.361931,-0.356757,0.342202,-0.366479,0.320374,-0.374669,0.296342,-0.381360,0.269999,-0.386589,0.241240,-0.390390,0.209960,-0.392797,0.206929,-0.392927,0.199447,-0.393130,0.189048,-0.393313,0.175759,-0.393475,0.159607,-0.393616,0.140617,-0.393736,0.118817,-0.393835,0.094232,-0.393912,0.066889,-0.393969,0.036814,-0.394003,0.004034,-0.394017,-0.031425,-0.394008,-0.069537,-0.393978,
-0.110275,-0.393927,-0.400928,-0.393493,-0.401314,-0.329560,-0.401699,-0.265627,-0.095869,-0.265175,-0.089214,-0.265166,-0.054206,-0.265112,-0.022011,-0.265060,0.007495,-0.265008,0.034436,-0.264954,0.058934,-0.264898,0.081114,-0.264838,0.101099,-0.264773,0.119012,-0.264703,0.134977,-0.264625,0.149117,-0.264538,0.161556,-0.264442,0.172416,-0.264335,0.181822,-0.264216,0.189898,-0.264083,
0.196765,-0.263937,0.202549,-0.263774,0.207372,-0.263595,0.211358,-0.263398,0.214630,-0.263182,0.217312,-0.262945,0.219527,-0.262687,0.221398,-0.262406,0.223050,-0.262101,0.235632,-0.259124,0.246579,-0.255351,0.255535,-0.250693,0.262986,-0.244896,0.269417,-0.237704,0.270432,-0.236357,0.272710,-0.233097,0.274566,-0.229844,0.276047,-0.226267,0.277201,-0.222038,0.278074,-0.216826,
0.278713,-0.210304,0.279165,-0.202140,0.279478,-0.192007,0.279698,-0.179573,0.279873,-0.164511,0.279893,-0.162473,0.280015,-0.147592,0.280035,-0.135283,0.279921,-0.125202,0.279642,-0.117006,0.279164,-0.110352,0.278455,-0.104896,0.277483,-0.100294,0.276214,-0.096204,0.274618,-0.092282,0.272661,-0.088185,0.268629,-0.081430,0.262300,-0.074348,0.254177,-0.068520,0.243885,-0.063686,
0.231049,-0.059589,0.218836,-0.056317,-0.363950,-0.054767,-0.364720,0.073087,-0.078859,0.073598,-0.050795,0.073647,-0.018414,0.073702,0.011242,0.073755,0.038304,0.073808,0.062901,0.073865,0.085163,0.073930,0.105220,0.074005,0.123202,0.074095,0.139238,0.074203,0.153457,0.074332,0.165991,0.074485,0.176968,0.074668,0.186519,0.074882,0.194773,0.075131,0.201859,0.075419,
0.207909,0.075749,0.213050,0.076125,0.217414,0.076549,0.221130,0.077027,0.224328,0.077561,0.227137,0.078154,0.229687,0.078810,0.232109,0.079533,0.234531,0.080326,0.237084,0.081192,0.239897,0.082135,0.242024,0.082851,0.256147,0.088622,0.267622,0.095389,0.276633,0.103349,0.283362,0.112695,0.287993,0.123624,0.290709,0.136330,0.290791,0.136997,0.291226,0.142773,
0.291546,0.151397,0.291751,0.162775,0.291838,0.176815,0.291807,0.193423,0.291656,0.212506,0.291540,0.223211,0.291345,0.238241,0.291110,0.250811,0.290801,0.261230,0.290384,0.269806,0.289826,0.276847,0.289093,0.282660,0.288151,0.287554,0.286966,0.291836,0.285505,0.295814,0.283733,0.299797,0.281618,0.304092,0.281130,0.305037,0.274850,0.314468,0.266565,0.322593,
0.256059,0.329555,0.243116,0.335501,0.227520,0.340576,0.212920,0.344604,-0.094004,0.345344,-0.400928,0.346083,-0.401314,0.410057,-0.401699,0.474030,-0.095055,0.474030,-0.066911,0.474026,-0.066911,0.474026,$1*%
%AMFreePoly2*
4,1,181,0.313898,0.744212,0.329394,0.744211,0.370812,0.744199,0.410509,0.744176,0.448409,0.744143,0.484433,0.744099,0.518505,0.744046,0.550548,0.743982,0.580483,0.743909,0.608234,0.743827,0.633723,0.743735,0.656872,0.743635,0.677605,0.743527,0.695844,0.743410,0.711511,0.743285,0.724530,0.743153,0.734822,0.743013,0.742311,0.742866,0.746919,0.742712,0.765300,0.741620,
0.792054,0.739291,0.816538,0.736161,0.839122,0.732172,0.860175,0.727264,0.880066,0.721378,0.899954,0.714129,0.922318,0.703905,0.942262,0.692199,0.959866,0.678908,0.975210,0.663926,0.988374,0.647150,0.999436,0.628476,1.008478,0.607800,1.015577,0.585016,1.020814,0.560023,1.024268,0.532714,1.024308,0.532253,1.024561,0.528022,1.024784,0.521829,1.024977,0.513591,
1.025141,0.503226,1.025275,0.490650,1.025381,0.475780,1.025458,0.458533,1.025508,0.438826,1.025529,0.416576,1.025524,0.391701,1.025492,0.364116,1.025433,0.333739,1.025349,0.300487,1.025318,0.289715,1.025233,0.261007,1.025149,0.235055,1.025064,0.211710,1.024976,0.190822,1.024882,0.172242,1.024782,0.155820,1.024672,0.141407,1.024552,0.128854,1.024418,0.118010,
1.024270,0.108727,1.024104,0.100855,1.023919,0.094244,1.023713,0.088745,1.023484,0.084209,1.023230,0.080485,1.022949,0.077425,1.022638,0.074879,1.022297,0.072698,1.021170,0.066444,1.016388,0.043784,1.010876,0.023626,1.004491,0.005648,0.997090,-0.010475,0.988530,-0.025063,0.978668,-0.038440,0.967359,-0.050927,0.957464,-0.060150,0.940664,-0.073051,0.921860,-0.084428,
0.900958,-0.094314,0.877866,-0.102741,0.852488,-0.109741,0.824732,-0.115348,0.794505,-0.119594,0.761711,-0.122511,0.760380,-0.122580,0.755247,-0.122731,0.747246,-0.122876,0.736436,-0.123012,0.722881,-0.123141,0.706643,-0.123262,0.687783,-0.123374,0.666363,-0.123478,0.642445,-0.123573,0.616092,-0.123660,0.587364,-0.123737,0.556324,-0.123805,0.523033,-0.123864,0.487554,-0.123913,
0.449948,-0.123952,0.410278,-0.123980,0.368605,-0.123999,0.324991,-0.124007,-0.089541,-0.124029,-0.089541,0.004595,0.074645,0.004595,0.413740,0.005035,0.433090,0.005060,0.469832,0.005104,0.503793,0.005146,0.535091,0.005186,0.563843,0.005230,0.590167,0.005279,0.614183,0.005337,0.636007,0.005407,0.655758,0.005492,0.673554,0.005595,0.689512,0.005720,0.703752,0.005870,
0.716391,0.006047,0.727547,0.006255,0.737338,0.006496,0.745882,0.006775,0.753297,0.007094,0.759702,0.007457,0.765214,0.007865,0.769951,0.008324,0.774032,0.008835,0.777575,0.009401,0.780697,0.010027,0.783516,0.010715,0.786151,0.011468,0.788720,0.012289,0.791341,0.013182,0.794132,0.014149,0.797210,0.015194,0.801711,0.016743,0.810985,0.020469,0.818680,0.024594,
0.825753,0.029682,0.833165,0.036295,0.838456,0.041941,0.846530,0.053656,0.852863,0.067553,0.857536,0.083791,0.860814,0.098583,0.860814,0.524579,0.857544,0.539296,0.854239,0.551617,0.849523,0.563370,0.843457,0.573443,0.835723,0.582459,0.829369,0.588175,0.819304,0.595087,0.807602,0.600851,0.794019,0.605547,0.778308,0.609255,0.760224,0.612057,0.739524,0.614032,
0.738586,0.614088,0.733673,0.614263,0.725895,0.614428,0.715324,0.614582,0.702033,0.614726,0.686092,0.614860,0.667574,0.614982,0.646549,0.615093,0.623091,0.615192,0.597269,0.615280,0.569156,0.615355,0.538823,0.615417,0.506343,0.615466,0.471786,0.615502,0.435225,0.615525,0.396730,0.615534,0.074645,0.615547,0.074645,0.004595,-0.089541,0.004595,-0.089541,0.744233,
0.313898,0.744212,0.313898,0.744212,$1*%
%AMFreePoly3*
4,1,56,0.801419,0.625552,0.437177,0.625180,0.072936,0.624807,0.072558,0.492053,0.072181,0.359299,0.764440,0.359299,0.764440,0.230613,0.072197,0.230613,0.072197,0.014657,0.801419,0.014657,0.801419,-0.114029,-0.091989,-0.114029,-0.091989,0.319116,-0.091987,0.350411,-0.091978,0.385353,-0.091963,0.419426,-0.091941,0.452515,-0.091914,0.484502,-0.091882,0.515272,-0.091844,0.544709,
-0.091802,0.572696,-0.091755,0.599118,-0.091703,0.623859,-0.091647,0.646802,-0.091588,0.667831,-0.091524,0.686831,-0.091458,0.703685,-0.091388,0.718277,-0.091316,0.730491,-0.091241,0.740211,-0.091164,0.747321,-0.091084,0.751705,-0.091003,0.753247,-0.090950,0.753260,-0.088934,0.753340,-0.084093,0.753417,-0.076541,0.753493,-0.066393,0.753567,-0.053764,0.753638,-0.038766,0.753707,
-0.021516,0.753772,-0.002127,0.753834,0.019286,0.753893,0.042608,0.753947,0.067726,0.753998,0.094525,0.754045,0.122891,0.754087,0.152708,0.754124,0.183864,0.754156,0.216242,0.754183,0.249730,0.754204,0.284211,0.754220,0.319573,0.754230,0.355701,0.754233,0.801419,0.754233,0.801419,0.625552,0.801419,0.625552,$1*%
%AMFreePoly4*
4,1,5,0.082346,-0.294029,-0.081840,-0.294029,-0.081840,0.574233,0.082346,0.574233,0.082346,-0.294029,0.082346,-0.294029,$1*%
%AMFreePoly5*
4,1,13,0.003288,0.773876,0.085012,0.773493,0.085387,0.594886,0.085763,0.416278,0.764682,0.416278,0.764682,0.287592,0.085751,0.287592,0.085751,0.034657,0.813494,0.034657,0.813494,-0.094029,-0.078435,-0.094029,-0.078435,0.774258,0.003288,0.773876,0.003288,0.773876,$1*%
%AMFreePoly6*
4,1,34,0.084421,-0.184029,-0.079765,-0.184029,-0.079765,0.249116,-0.079762,0.280411,-0.079753,0.315353,-0.079738,0.349426,-0.079717,0.382515,-0.079690,0.414502,-0.079657,0.445272,-0.079620,0.474709,-0.079577,0.502696,-0.079530,0.529118,-0.079478,0.553859,-0.079423,0.576802,-0.079363,0.597831,-0.079300,0.616831,-0.079233,0.633685,-0.079164,0.648277,-0.079091,0.660491,-0.079016,0.670211,
-0.078939,0.677321,-0.078860,0.681705,-0.078779,0.683247,-0.078157,0.683357,-0.074910,0.683536,-0.069138,0.683701,-0.061112,0.683850,-0.051103,0.683979,-0.039385,0.684085,-0.026228,0.684165,-0.011904,0.684215,0.003314,0.684233,0.084421,0.684233,0.084421,-0.184029,0.084421,-0.184029,$1*%
%AMFreePoly7*
4,1,62,0.068747,0.406986,0.068748,0.389825,0.068756,0.358871,0.068770,0.328777,0.068792,0.299675,0.068820,0.271694,0.068854,0.244966,0.068893,0.219624,0.068938,0.195796,0.068988,0.173616,0.069043,0.153214,0.069102,0.134721,0.069166,0.118268,0.069233,0.103986,0.069303,0.092007,0.069376,0.082462,0.069452,0.075481,0.069531,0.071197,0.069611,0.069739,0.070388,0.070253,
0.073417,0.072395,0.078610,0.076119,0.085842,0.081333,0.094985,0.087945,0.105914,0.095864,0.118502,0.104998,0.132622,0.115254,0.148149,0.126541,0.164954,0.138767,0.182913,0.151840,0.201899,0.165668,0.221784,0.180160,0.242443,0.195223,0.263750,0.210765,0.284385,0.225822,0.307606,0.242766,0.332747,0.261110,0.359569,0.280681,0.387834,0.301305,0.417304,0.322808,
0.447742,0.345017,0.478909,0.367758,0.510567,0.390857,0.542480,0.414142,0.574407,0.437438,0.606113,0.460572,0.637358,0.483369,0.667905,0.505658,0.697516,0.527263,0.725953,0.548012,0.994882,0.744233,1.074570,0.744233,1.074570,-0.124029,0.931099,-0.124029,0.930726,0.197717,0.930353,0.519464,0.499180,0.197759,0.068007,-0.123947,-0.074731,-0.124029,-0.074731,0.744233,
0.068747,0.744233,0.068747,0.406986,0.068747,0.406986,$1*%
%AMFreePoly8*
4,1,223,0.533046,0.464006,0.560050,0.463987,0.586556,0.463959,0.612387,0.463920,0.637369,0.463872,0.661326,0.463814,0.684081,0.463747,0.705460,0.463669,0.725286,0.463582,0.743383,0.463485,0.759577,0.463378,0.773691,0.463261,0.785549,0.463134,0.794977,0.462998,0.801797,0.462851,0.805835,0.462694,0.809248,0.462474,0.830305,0.460737,0.849006,0.458433,0.865846,0.455443,
0.881320,0.451648,0.895924,0.446930,0.910155,0.441169,0.924506,0.434247,0.925882,0.433527,0.943719,0.422490,0.959403,0.409438,0.972880,0.394443,0.984093,0.377575,0.992987,0.358905,0.999505,0.338505,1.000264,0.335510,1.001227,0.331773,1.002118,0.328305,1.002938,0.324986,1.003692,0.321698,1.004382,0.318320,1.005011,0.314732,1.005582,0.310816,1.006098,0.306452,
1.006562,0.301521,1.006978,0.295902,1.007348,0.289476,1.007675,0.282124,1.007962,0.273726,1.008212,0.264163,1.008429,0.253315,1.008615,0.241063,1.008774,0.227287,1.008908,0.211867,1.009020,0.194684,1.009113,0.175619,1.009192,0.154552,1.009257,0.131363,1.009313,0.105933,1.009362,0.078142,1.009408,0.047871,1.009454,0.015001,1.009502,-0.020589,1.009556,-0.059017,
1.010053,-0.404029,0.844293,-0.404029,0.844293,-0.067094,0.844292,-0.034112,0.844287,0.001018,0.844278,0.033401,0.844263,0.063151,0.844243,0.090381,0.844216,0.115203,0.844182,0.137732,0.844139,0.158080,0.844088,0.176361,0.844027,0.192687,0.843956,0.207172,0.843874,0.219928,0.843780,0.231069,0.843673,0.240709,0.843553,0.248960,0.843419,0.255935,0.843270,0.261748,
0.843106,0.266511,0.842926,0.270338,0.842728,0.273342,0.842513,0.275636,0.842279,0.277334,0.842026,0.278547,0.841693,0.279782,0.836778,0.292623,0.829625,0.303717,0.820189,0.313093,0.808426,0.320781,0.794289,0.326811,0.777734,0.331215,0.758715,0.334021,0.757371,0.334117,0.752564,0.334299,0.745076,0.334468,0.735089,0.334626,0.722784,0.334772,0.708343,0.334906,
0.691949,0.335028,0.673782,0.335138,0.654026,0.335236,0.632862,0.335322,0.610471,0.335397,0.587037,0.335459,0.562740,0.335509,0.537763,0.335548,0.512288,0.335574,0.486496,0.335589,0.460570,0.335592,0.434691,0.335583,0.409041,0.335562,0.383803,0.335529,0.359158,0.335484,0.335288,0.335427,0.312375,0.335358,0.290601,0.335278,0.270149,0.335185,0.251199,0.335081,
0.233933,0.334964,0.218535,0.334836,0.205185,0.334696,0.194065,0.334544,0.185359,0.334380,0.179246,0.334204,0.175910,0.334016,0.159412,0.331646,0.142509,0.327411,0.128049,0.321571,0.115997,0.314107,0.106317,0.305001,0.098977,0.294237,0.098866,0.294030,0.097893,0.292277,0.096994,0.290699,0.096166,0.289178,0.095405,0.287598,0.094709,0.285845,0.094075,0.283801,
0.093500,0.281351,0.092981,0.278379,0.092515,0.274769,0.092100,0.270405,0.091732,0.265170,0.091408,0.258949,0.091127,0.251626,0.090884,0.243085,0.090677,0.233209,0.090503,0.221883,0.090360,0.208991,0.090244,0.194417,0.090152,0.178044,0.090082,0.159757,0.090030,0.139440,0.089995,0.116977,0.089972,0.092251,0.089959,0.065147,0.089953,0.035549,0.089952,0.003341,
0.089952,-0.031594,0.089951,-0.069371,0.089925,-0.404029,-0.074260,-0.404029,-0.074233,-0.064934,-0.074233,-0.056895,-0.074227,-0.019475,-0.074217,0.015124,-0.074202,0.047016,-0.074181,0.076313,-0.074153,0.103130,-0.074119,0.127580,-0.074076,0.149778,-0.074025,0.169835,-0.073965,0.187867,-0.073894,0.203987,-0.073813,0.218309,-0.073720,0.230945,-0.073615,0.242011,-0.073498,0.251618,
-0.073366,0.259882,-0.073220,0.266916,-0.073060,0.272833,-0.072883,0.277748,-0.072690,0.281773,-0.072480,0.285022,-0.072252,0.287609,-0.072005,0.289648,-0.070903,0.296724,-0.065671,0.320281,-0.058291,0.341867,-0.048721,0.361574,-0.036916,0.379497,-0.022834,0.395730,-0.016870,0.401474,-0.003985,0.412081,0.010583,0.421761,0.027473,0.430958,0.034325,0.434254,0.056097,0.443200,
0.079213,0.450434,0.103987,0.456031,0.130734,0.460065,0.159766,0.462612,0.162074,0.462714,0.168001,0.462866,0.176592,0.463008,0.187672,0.463141,0.201065,0.463265,0.216596,0.463380,0.234088,0.463485,0.253366,0.463581,0.274255,0.463667,0.296578,0.463744,0.320160,0.463811,0.344824,0.463869,0.370397,0.463917,0.396701,0.463956,0.423561,0.463985,0.450801,0.464005,
0.478246,0.464015,0.505719,0.464015,0.533046,0.464006,0.533046,0.464006,$1*%
G04 Aperture macros list end*
G04 #@! TA.AperFunction,SMDPad,CuDef*
%ADD10FreePoly0,180.000000*%
G04 #@! TD*
G04 #@! TA.AperFunction,SMDPad,CuDef*
%ADD11FreePoly1,180.000000*%
G04 #@! TD*
G04 #@! TA.AperFunction,SMDPad,CuDef*
%ADD12FreePoly2,180.000000*%
G04 #@! TD*
G04 #@! TA.AperFunction,SMDPad,CuDef*
%ADD13FreePoly3,180.000000*%
G04 #@! TD*
G04 #@! TA.AperFunction,SMDPad,CuDef*
%ADD14FreePoly4,180.000000*%
G04 #@! TD*
G04 #@! TA.AperFunction,SMDPad,CuDef*
%ADD15FreePoly5,180.000000*%
G04 #@! TD*
G04 #@! TA.AperFunction,SMDPad,CuDef*
%ADD16FreePoly6,180.000000*%
G04 #@! TD*
G04 #@! TA.AperFunction,SMDPad,CuDef*
%ADD17FreePoly7,180.000000*%
G04 #@! TD*
G04 #@! TA.AperFunction,SMDPad,CuDef*
%ADD18FreePoly8,180.000000*%
G04 #@! TD*
G04 #@! TA.AperFunction,ComponentPad*
%ADD19O,1.100000X2.200000*%
G04 #@! TD*
G04 #@! TA.AperFunction,ComponentPad*
%ADD20O,1.300000X1.900000*%
G04 #@! TD*
G04 #@! TA.AperFunction,ComponentPad*
%ADD21C,3.500001*%
G04 #@! TD*
G04 #@! TA.AperFunction,ViaPad*
%ADD22C,0.450000*%
G04 #@! TD*
G04 #@! TA.AperFunction,ViaPad*
%ADD23C,0.508000*%
G04 #@! TD*
G04 #@! TA.AperFunction,Conductor*
%ADD24C,0.152400*%
G04 #@! TD*
G04 #@! TA.AperFunction,Conductor*
%ADD25C,0.508000*%
G04 #@! TD*
G04 APERTURE END LIST*
D10*
X75902500Y-59410000D03*
D11*
X74482500Y-59350000D03*
D12*
X72852500Y-57540000D03*
D13*
X73882500Y-57530000D03*
D14*
X74222500Y-57710000D03*
D15*
X75212500Y-57510000D03*
D16*
X75542500Y-57600000D03*
D17*
X76862500Y-57540000D03*
D18*
X78102500Y-57820000D03*
D19*
X70702500Y-63343000D03*
D20*
X70702500Y-59143000D03*
X79302500Y-59143000D03*
D19*
X79302500Y-63343000D03*
D21*
X82004500Y-58543000D03*
D22*
X75002500Y-66026400D03*
X73732500Y-66890000D03*
D23*
X75502500Y-68016000D03*
D22*
X76272500Y-66890000D03*
D23*
X74504500Y-68018000D03*
X72552500Y-65239000D03*
X77452500Y-65239000D03*
D24*
X73732500Y-66890000D02*
X73732500Y-67271000D01*
X73732500Y-67271000D02*
X73986500Y-67525000D01*
X75011500Y-67525000D02*
X75502500Y-68016000D01*
X73986500Y-67525000D02*
X75011500Y-67525000D01*
X76272500Y-66890000D02*
X76272500Y-68287000D01*
X76272500Y-68287000D02*
X76018500Y-68541000D01*
X75027500Y-68541000D02*
X74504500Y-68018000D01*
X76018500Y-68541000D02*
X75027500Y-68541000D01*
D25*
X72552500Y-65239000D02*
X77452500Y-65239000D01*
G04 #@! TA.AperFunction,Conductor*
G36*
X81977046Y-56698329D02*
G01*
X81982976Y-56700034D01*
X81987899Y-56700124D01*
X81987901Y-56700124D01*
X82089488Y-56701974D01*
X82093484Y-56702154D01*
X82163863Y-56707188D01*
X82169200Y-56707761D01*
X82280822Y-56723810D01*
X82363537Y-56735702D01*
X82368806Y-56736654D01*
X82382111Y-56739548D01*
X82423498Y-56748552D01*
X82428698Y-56749879D01*
X82617070Y-56805189D01*
X82622164Y-56806884D01*
X82674614Y-56826447D01*
X82679573Y-56828502D01*
X82795489Y-56881439D01*
X82857044Y-56909550D01*
X82858167Y-56910063D01*
X82862962Y-56912463D01*
X82904415Y-56935098D01*
X82912063Y-56939274D01*
X82916679Y-56942013D01*
X83081853Y-57048163D01*
X83086263Y-57051225D01*
X83131077Y-57084773D01*
X83135256Y-57088140D01*
X83283626Y-57216702D01*
X83287555Y-57220361D01*
X83327148Y-57259954D01*
X83330806Y-57263883D01*
X83459354Y-57412236D01*
X83462722Y-57416415D01*
X83496277Y-57461238D01*
X83499339Y-57465648D01*
X83605475Y-57630800D01*
X83608214Y-57635416D01*
X83635037Y-57684538D01*
X83637440Y-57689339D01*
X83718998Y-57867928D01*
X83721053Y-57872887D01*
X83740613Y-57925329D01*
X83742308Y-57930423D01*
X83797622Y-58118804D01*
X83798949Y-58124004D01*
X83799496Y-58126518D01*
X83810845Y-58178686D01*
X83811797Y-58183956D01*
X83818054Y-58227473D01*
X83839739Y-58378300D01*
X83840312Y-58383637D01*
X83845346Y-58454016D01*
X83845526Y-58458012D01*
X83847362Y-58558792D01*
X83847466Y-58564525D01*
X83849157Y-58570406D01*
X83849171Y-58570453D01*
X83852100Y-58591236D01*
X83852100Y-70994764D01*
X83849171Y-71015545D01*
X83847466Y-71021475D01*
X83847376Y-71026398D01*
X83847376Y-71026400D01*
X83845526Y-71127988D01*
X83845346Y-71131984D01*
X83840312Y-71202363D01*
X83839739Y-71207700D01*
X83811799Y-71402031D01*
X83810848Y-71407296D01*
X83802229Y-71446919D01*
X83798949Y-71461996D01*
X83797622Y-71467196D01*
X83742308Y-71655577D01*
X83740613Y-71660671D01*
X83721053Y-71713113D01*
X83718998Y-71718072D01*
X83637440Y-71896661D01*
X83635037Y-71901462D01*
X83608214Y-71950584D01*
X83605475Y-71955200D01*
X83499339Y-72120352D01*
X83496277Y-72124762D01*
X83462722Y-72169585D01*
X83459354Y-72173764D01*
X83330806Y-72322117D01*
X83327148Y-72326046D01*
X83287555Y-72365639D01*
X83283626Y-72369298D01*
X83135256Y-72497860D01*
X83131077Y-72501227D01*
X83086263Y-72534775D01*
X83081853Y-72537837D01*
X82916679Y-72643987D01*
X82912064Y-72646726D01*
X82903533Y-72651384D01*
X82862968Y-72673534D01*
X82858167Y-72675937D01*
X82679573Y-72757498D01*
X82674614Y-72759553D01*
X82622164Y-72779116D01*
X82617070Y-72780811D01*
X82428698Y-72836121D01*
X82423498Y-72837448D01*
X82382111Y-72846452D01*
X82368806Y-72849346D01*
X82363537Y-72850298D01*
X82280822Y-72862190D01*
X82169200Y-72878239D01*
X82163863Y-72878812D01*
X82093484Y-72883846D01*
X82089488Y-72884026D01*
X81987901Y-72885876D01*
X81987899Y-72885876D01*
X81982976Y-72885966D01*
X81977046Y-72887671D01*
X81956265Y-72890600D01*
X80997979Y-72890600D01*
X80982003Y-72888883D01*
X80974850Y-72887328D01*
X80963632Y-72884889D01*
X80958707Y-72885124D01*
X80958706Y-72885124D01*
X80949824Y-72885548D01*
X80930242Y-72886483D01*
X80929537Y-72886454D01*
X80924436Y-72884341D01*
X80914621Y-72885633D01*
X80914620Y-72885633D01*
X80910028Y-72886238D01*
X80898683Y-72887731D01*
X80892473Y-72888286D01*
X80877092Y-72889021D01*
X80872391Y-72890524D01*
X80868726Y-72891186D01*
X80865134Y-72892148D01*
X80860245Y-72892792D01*
X80855689Y-72894679D01*
X80846012Y-72898687D01*
X80840144Y-72900836D01*
X80815424Y-72908742D01*
X80811710Y-72912828D01*
X80811085Y-72913155D01*
X80783325Y-72924653D01*
X80778806Y-72926187D01*
X80770185Y-72926187D01*
X80761612Y-72931137D01*
X80750495Y-72937556D01*
X80741667Y-72941909D01*
X80739299Y-72942890D01*
X80734743Y-72944777D01*
X80730836Y-72947775D01*
X80730831Y-72947778D01*
X80728782Y-72949350D01*
X80720616Y-72954806D01*
X80719770Y-72955294D01*
X80714115Y-72958560D01*
X80708814Y-72963861D01*
X80701419Y-72970347D01*
X80683377Y-72984191D01*
X80680078Y-72992156D01*
X80676929Y-72995746D01*
X80655244Y-73017431D01*
X80651654Y-73020580D01*
X80643689Y-73023879D01*
X80637663Y-73031732D01*
X80637662Y-73031733D01*
X80634562Y-73035774D01*
X80591179Y-73063413D01*
X80540179Y-73056700D01*
X80521727Y-73043170D01*
X80441963Y-72963406D01*
X80436687Y-72960718D01*
X80436686Y-72960717D01*
X80333667Y-72908227D01*
X80333666Y-72908227D01*
X80328393Y-72905540D01*
X80202499Y-72885600D01*
X80076605Y-72905540D01*
X80071332Y-72908227D01*
X80071331Y-72908227D01*
X79968312Y-72960717D01*
X79968311Y-72960718D01*
X79963035Y-72963406D01*
X79905673Y-73020768D01*
X79859053Y-73042508D01*
X79809366Y-73029194D01*
X79799325Y-73020768D01*
X79741963Y-72963406D01*
X79736687Y-72960718D01*
X79736686Y-72960717D01*
X79633667Y-72908227D01*
X79633666Y-72908227D01*
X79628393Y-72905540D01*
X79502499Y-72885600D01*
X79376605Y-72905540D01*
X79371332Y-72908227D01*
X79371331Y-72908227D01*
X79268312Y-72960717D01*
X79268311Y-72960718D01*
X79263035Y-72963406D01*
X79205673Y-73020768D01*
X79159053Y-73042508D01*
X79109366Y-73029194D01*
X79099325Y-73020768D01*
X79041963Y-72963406D01*
X79036687Y-72960718D01*
X79036686Y-72960717D01*
X78933667Y-72908227D01*
X78933666Y-72908227D01*
X78928393Y-72905540D01*
X78802499Y-72885600D01*
X78676605Y-72905540D01*
X78671332Y-72908227D01*
X78671331Y-72908227D01*
X78568312Y-72960717D01*
X78568311Y-72960718D01*
X78563035Y-72963406D01*
X78505673Y-73020768D01*
X78459053Y-73042508D01*
X78409366Y-73029194D01*
X78399325Y-73020768D01*
X78341963Y-72963406D01*
X78336687Y-72960718D01*
X78336686Y-72960717D01*
X78233667Y-72908227D01*
X78233666Y-72908227D01*
X78228393Y-72905540D01*
X78102499Y-72885600D01*
X77976605Y-72905540D01*
X77971332Y-72908227D01*
X77971331Y-72908227D01*
X77868312Y-72960717D01*
X77868311Y-72960718D01*
X77863035Y-72963406D01*
X77805673Y-73020768D01*
X77759053Y-73042508D01*
X77709366Y-73029194D01*
X77699325Y-73020768D01*
X77641963Y-72963406D01*
X77636687Y-72960718D01*
X77636686Y-72960717D01*
X77533667Y-72908227D01*
X77533666Y-72908227D01*
X77528393Y-72905540D01*
X77402499Y-72885600D01*
X77276605Y-72905540D01*
X77271332Y-72908227D01*
X77271331Y-72908227D01*
X77168312Y-72960717D01*
X77168311Y-72960718D01*
X77163035Y-72963406D01*
X77105673Y-73020768D01*
X77059053Y-73042508D01*
X77009366Y-73029194D01*
X76999325Y-73020768D01*
X76941963Y-72963406D01*
X76936687Y-72960718D01*
X76936686Y-72960717D01*
X76833667Y-72908227D01*
X76833666Y-72908227D01*
X76828393Y-72905540D01*
X76702499Y-72885600D01*
X76576605Y-72905540D01*
X76571332Y-72908227D01*
X76571331Y-72908227D01*
X76468312Y-72960717D01*
X76468311Y-72960718D01*
X76463035Y-72963406D01*
X76405673Y-73020768D01*
X76359053Y-73042508D01*
X76309366Y-73029194D01*
X76299325Y-73020768D01*
X76241963Y-72963406D01*
X76236687Y-72960718D01*
X76236686Y-72960717D01*
X76133667Y-72908227D01*
X76133666Y-72908227D01*
X76128393Y-72905540D01*
X76002499Y-72885600D01*
X75876605Y-72905540D01*
X75871332Y-72908227D01*
X75871331Y-72908227D01*
X75768312Y-72960717D01*
X75768311Y-72960718D01*
X75763035Y-72963406D01*
X75705673Y-73020768D01*
X75659053Y-73042508D01*
X75609366Y-73029194D01*
X75599325Y-73020768D01*
X75541963Y-72963406D01*
X75536687Y-72960718D01*
X75536686Y-72960717D01*
X75433667Y-72908227D01*
X75433666Y-72908227D01*
X75428393Y-72905540D01*
X75302499Y-72885600D01*
X75176605Y-72905540D01*
X75171332Y-72908227D01*
X75171331Y-72908227D01*
X75068312Y-72960717D01*
X75068311Y-72960718D01*
X75063035Y-72963406D01*
X75005673Y-73020768D01*
X74959053Y-73042508D01*
X74909366Y-73029194D01*
X74899325Y-73020768D01*
X74841963Y-72963406D01*
X74836687Y-72960718D01*
X74836686Y-72960717D01*
X74733667Y-72908227D01*
X74733666Y-72908227D01*
X74728393Y-72905540D01*
X74602499Y-72885600D01*
X74476605Y-72905540D01*
X74471332Y-72908227D01*
X74471331Y-72908227D01*
X74368312Y-72960717D01*
X74368311Y-72960718D01*
X74363035Y-72963406D01*
X74305673Y-73020768D01*
X74259053Y-73042508D01*
X74209366Y-73029194D01*
X74199325Y-73020768D01*
X74141963Y-72963406D01*
X74136687Y-72960718D01*
X74136686Y-72960717D01*
X74033667Y-72908227D01*
X74033666Y-72908227D01*
X74028393Y-72905540D01*
X73902499Y-72885600D01*
X73776605Y-72905540D01*
X73771332Y-72908227D01*
X73771331Y-72908227D01*
X73668312Y-72960717D01*
X73668311Y-72960718D01*
X73663035Y-72963406D01*
X73605673Y-73020768D01*
X73559053Y-73042508D01*
X73509366Y-73029194D01*
X73499325Y-73020768D01*
X73441963Y-72963406D01*
X73436687Y-72960718D01*
X73436686Y-72960717D01*
X73333667Y-72908227D01*
X73333666Y-72908227D01*
X73328393Y-72905540D01*
X73202499Y-72885600D01*
X73076605Y-72905540D01*
X73071332Y-72908227D01*
X73071331Y-72908227D01*
X72968312Y-72960717D01*
X72968311Y-72960718D01*
X72963035Y-72963406D01*
X72905673Y-73020768D01*
X72859053Y-73042508D01*
X72809366Y-73029194D01*
X72799325Y-73020768D01*
X72741963Y-72963406D01*
X72736687Y-72960718D01*
X72736686Y-72960717D01*
X72633667Y-72908227D01*
X72633666Y-72908227D01*
X72628393Y-72905540D01*
X72502499Y-72885600D01*
X72376605Y-72905540D01*
X72371332Y-72908227D01*
X72371331Y-72908227D01*
X72268312Y-72960717D01*
X72268311Y-72960718D01*
X72263035Y-72963406D01*
X72205673Y-73020768D01*
X72159053Y-73042508D01*
X72109366Y-73029194D01*
X72099325Y-73020768D01*
X72041963Y-72963406D01*
X72036687Y-72960718D01*
X72036686Y-72960717D01*
X71933667Y-72908227D01*
X71933666Y-72908227D01*
X71928393Y-72905540D01*
X71802499Y-72885600D01*
X71676605Y-72905540D01*
X71671332Y-72908227D01*
X71671331Y-72908227D01*
X71568312Y-72960717D01*
X71568311Y-72960718D01*
X71563035Y-72963406D01*
X71505673Y-73020768D01*
X71459053Y-73042508D01*
X71409366Y-73029194D01*
X71399325Y-73020768D01*
X71341963Y-72963406D01*
X71336687Y-72960718D01*
X71336686Y-72960717D01*
X71233667Y-72908227D01*
X71233666Y-72908227D01*
X71228393Y-72905540D01*
X71102499Y-72885600D01*
X70976605Y-72905540D01*
X70971332Y-72908227D01*
X70971331Y-72908227D01*
X70868312Y-72960717D01*
X70868311Y-72960718D01*
X70863035Y-72963406D01*
X70805673Y-73020768D01*
X70759053Y-73042508D01*
X70709366Y-73029194D01*
X70699325Y-73020768D01*
X70641963Y-72963406D01*
X70636687Y-72960718D01*
X70636686Y-72960717D01*
X70533667Y-72908227D01*
X70533666Y-72908227D01*
X70528393Y-72905540D01*
X70402499Y-72885600D01*
X70276605Y-72905540D01*
X70271332Y-72908227D01*
X70271331Y-72908227D01*
X70168312Y-72960717D01*
X70168311Y-72960718D01*
X70163035Y-72963406D01*
X70105673Y-73020768D01*
X70059053Y-73042508D01*
X70009366Y-73029194D01*
X69999325Y-73020768D01*
X69941963Y-72963406D01*
X69936687Y-72960718D01*
X69936686Y-72960717D01*
X69833667Y-72908227D01*
X69833666Y-72908227D01*
X69828393Y-72905540D01*
X69702499Y-72885600D01*
X69576605Y-72905540D01*
X69571332Y-72908227D01*
X69571331Y-72908227D01*
X69468312Y-72960717D01*
X69468311Y-72960718D01*
X69463035Y-72963406D01*
X69407748Y-73018693D01*
X69361128Y-73040433D01*
X69313326Y-73026508D01*
X69311308Y-73023878D01*
X69303345Y-73020580D01*
X69299753Y-73017430D01*
X69278068Y-72995745D01*
X69274919Y-72992155D01*
X69271620Y-72984190D01*
X69253578Y-72970346D01*
X69246183Y-72963860D01*
X69240883Y-72958560D01*
X69234377Y-72954803D01*
X69226210Y-72949346D01*
X69224163Y-72947775D01*
X69224161Y-72947774D01*
X69220254Y-72944776D01*
X69215701Y-72942890D01*
X69214981Y-72942592D01*
X69213327Y-72941907D01*
X69204503Y-72937556D01*
X69184813Y-72926187D01*
X69176193Y-72926187D01*
X69171674Y-72924653D01*
X69143909Y-72913152D01*
X69143286Y-72912826D01*
X69139574Y-72908742D01*
X69124935Y-72904060D01*
X69114863Y-72900839D01*
X69108993Y-72898689D01*
X69099311Y-72894679D01*
X69099305Y-72894677D01*
X69094753Y-72892792D01*
X69089865Y-72892149D01*
X69086267Y-72891185D01*
X69082602Y-72890523D01*
X69077905Y-72889021D01*
X69062525Y-72888286D01*
X69056315Y-72887731D01*
X69030562Y-72884341D01*
X69025461Y-72886453D01*
X69024754Y-72886483D01*
X69003243Y-72885456D01*
X68996292Y-72885124D01*
X68996291Y-72885124D01*
X68991366Y-72884889D01*
X68980148Y-72887328D01*
X68972995Y-72888883D01*
X68957019Y-72890600D01*
X68052736Y-72890600D01*
X68031955Y-72887671D01*
X68026025Y-72885966D01*
X68021102Y-72885876D01*
X68021100Y-72885876D01*
X67983598Y-72885193D01*
X67917758Y-72883994D01*
X67913763Y-72883814D01*
X67845904Y-72878926D01*
X67840604Y-72878355D01*
X67831855Y-72877097D01*
X67645451Y-72850296D01*
X67640208Y-72849349D01*
X67599491Y-72840492D01*
X67585504Y-72837449D01*
X67580304Y-72836122D01*
X67391923Y-72780808D01*
X67386829Y-72779113D01*
X67334387Y-72759553D01*
X67329428Y-72757498D01*
X67150839Y-72675940D01*
X67146038Y-72673537D01*
X67096916Y-72646714D01*
X67092300Y-72643975D01*
X66927148Y-72537839D01*
X66922738Y-72534777D01*
X66877915Y-72501222D01*
X66873736Y-72497854D01*
X66725383Y-72369306D01*
X66721454Y-72365648D01*
X66681861Y-72326055D01*
X66678202Y-72322126D01*
X66549640Y-72173756D01*
X66546273Y-72169577D01*
X66512725Y-72124763D01*
X66509663Y-72120353D01*
X66403513Y-71955179D01*
X66400774Y-71950563D01*
X66373966Y-71901468D01*
X66371563Y-71896667D01*
X66290002Y-71718073D01*
X66287947Y-71713114D01*
X66268384Y-71660664D01*
X66266689Y-71655570D01*
X66211379Y-71467198D01*
X66210052Y-71461998D01*
X66202535Y-71427446D01*
X66198153Y-71407301D01*
X66197203Y-71402042D01*
X66186280Y-71326069D01*
X66169261Y-71207698D01*
X66168688Y-71202362D01*
X66163654Y-71131989D01*
X66163474Y-71127992D01*
X66161926Y-71043000D01*
X66391000Y-71043000D01*
X66391232Y-71045948D01*
X66403242Y-71198542D01*
X66410865Y-71295407D01*
X66411555Y-71298281D01*
X66462272Y-71509533D01*
X66469970Y-71541599D01*
X66471100Y-71544328D01*
X66471102Y-71544333D01*
X66541014Y-71713114D01*
X66566861Y-71775514D01*
X66699151Y-71991392D01*
X66701063Y-71993631D01*
X66701064Y-71993632D01*
X66779149Y-72085058D01*
X66863583Y-72183917D01*
X66865817Y-72185825D01*
X67053337Y-72345982D01*
X67056108Y-72348349D01*
X67271986Y-72480639D01*
X67274708Y-72481766D01*
X67274709Y-72481767D01*
X67503167Y-72576398D01*
X67503172Y-72576400D01*
X67505901Y-72577530D01*
X67508778Y-72578221D01*
X67508782Y-72578222D01*
X67736360Y-72632858D01*
X67752093Y-72636635D01*
X67755037Y-72636867D01*
X67755039Y-72636867D01*
X67939491Y-72651384D01*
X67939499Y-72651384D01*
X67940969Y-72651500D01*
X68068031Y-72651500D01*
X68069501Y-72651384D01*
X68069509Y-72651384D01*
X68253961Y-72636867D01*
X68253963Y-72636867D01*
X68256907Y-72636635D01*
X68272640Y-72632858D01*
X68500218Y-72578222D01*
X68500222Y-72578221D01*
X68503099Y-72577530D01*
X68505828Y-72576400D01*
X68505833Y-72576398D01*
X68734291Y-72481767D01*
X68734292Y-72481766D01*
X68737014Y-72480639D01*
X68952892Y-72348349D01*
X68955664Y-72345982D01*
X69143183Y-72185825D01*
X69145417Y-72183917D01*
X69229851Y-72085058D01*
X69307936Y-71993632D01*
X69307937Y-71993631D01*
X69309849Y-71991392D01*
X69442139Y-71775514D01*
X69467986Y-71713114D01*
X69537898Y-71544333D01*
X69537900Y-71544328D01*
X69539030Y-71541599D01*
X69546729Y-71509533D01*
X69597445Y-71298281D01*
X69598135Y-71295407D01*
X69605759Y-71198542D01*
X69617768Y-71045948D01*
X69618000Y-71043000D01*
X80391000Y-71043000D01*
X80391232Y-71045948D01*
X80403242Y-71198542D01*
X80410865Y-71295407D01*
X80411555Y-71298281D01*
X80462272Y-71509533D01*
X80469970Y-71541599D01*
X80471100Y-71544328D01*
X80471102Y-71544333D01*
X80541014Y-71713114D01*
X80566861Y-71775514D01*
X80699151Y-71991392D01*
X80701063Y-71993631D01*
X80701064Y-71993632D01*
X80779149Y-72085058D01*
X80863583Y-72183917D01*
X80865817Y-72185825D01*
X81053337Y-72345982D01*
X81056108Y-72348349D01*
X81271986Y-72480639D01*
X81274708Y-72481766D01*
X81274709Y-72481767D01*
X81503167Y-72576398D01*
X81503172Y-72576400D01*
X81505901Y-72577530D01*
X81508778Y-72578221D01*
X81508782Y-72578222D01*
X81736360Y-72632858D01*
X81752093Y-72636635D01*
X81755037Y-72636867D01*
X81755039Y-72636867D01*
X81939491Y-72651384D01*
X81939499Y-72651384D01*
X81940969Y-72651500D01*
X82068031Y-72651500D01*
X82069501Y-72651384D01*
X82069509Y-72651384D01*
X82253961Y-72636867D01*
X82253963Y-72636867D01*
X82256907Y-72636635D01*
X82272640Y-72632858D01*
X82500218Y-72578222D01*
X82500222Y-72578221D01*
X82503099Y-72577530D01*
X82505828Y-72576400D01*
X82505833Y-72576398D01*
X82734291Y-72481767D01*
X82734292Y-72481766D01*
X82737014Y-72480639D01*
X82952892Y-72348349D01*
X82955664Y-72345982D01*
X83143183Y-72185825D01*
X83145417Y-72183917D01*
X83229851Y-72085058D01*
X83307936Y-71993632D01*
X83307937Y-71993631D01*
X83309849Y-71991392D01*
X83442139Y-71775514D01*
X83467986Y-71713114D01*
X83537898Y-71544333D01*
X83537900Y-71544328D01*
X83539030Y-71541599D01*
X83546729Y-71509533D01*
X83597445Y-71298281D01*
X83598135Y-71295407D01*
X83605759Y-71198542D01*
X83617768Y-71045948D01*
X83618000Y-71043000D01*
X83601904Y-70838480D01*
X83598367Y-70793539D01*
X83598367Y-70793537D01*
X83598135Y-70790593D01*
X83581793Y-70722522D01*
X83539722Y-70547282D01*
X83539721Y-70547278D01*
X83539030Y-70544401D01*
X83533784Y-70531734D01*
X83443267Y-70313209D01*
X83443266Y-70313208D01*
X83442139Y-70310486D01*
X83309849Y-70094608D01*
X83214265Y-69982693D01*
X83147325Y-69904317D01*
X83145417Y-69902083D01*
X82952892Y-69737651D01*
X82737014Y-69605361D01*
X82734291Y-69604233D01*
X82505833Y-69509602D01*
X82505828Y-69509600D01*
X82503099Y-69508470D01*
X82500222Y-69507779D01*
X82500218Y-69507778D01*
X82259781Y-69450055D01*
X82256907Y-69449365D01*
X82253963Y-69449133D01*
X82253961Y-69449133D01*
X82069509Y-69434616D01*
X82069501Y-69434616D01*
X82068031Y-69434500D01*
X81940969Y-69434500D01*
X81939499Y-69434616D01*
X81939491Y-69434616D01*
X81755039Y-69449133D01*
X81755037Y-69449133D01*
X81752093Y-69449365D01*
X81749219Y-69450055D01*
X81508782Y-69507778D01*
X81508778Y-69507779D01*
X81505901Y-69508470D01*
X81503172Y-69509600D01*
X81503167Y-69509602D01*
X81274709Y-69604233D01*
X81271986Y-69605361D01*
X81056108Y-69737651D01*
X80863583Y-69902083D01*
X80861675Y-69904317D01*
X80794736Y-69982693D01*
X80699151Y-70094608D01*
X80566861Y-70310486D01*
X80565734Y-70313208D01*
X80565733Y-70313209D01*
X80475217Y-70531734D01*
X80469970Y-70544401D01*
X80469279Y-70547278D01*
X80469278Y-70547282D01*
X80427207Y-70722522D01*
X80410865Y-70790593D01*
X80410633Y-70793537D01*
X80410633Y-70793539D01*
X80407096Y-70838480D01*
X80391000Y-71043000D01*
X69618000Y-71043000D01*
X69601904Y-70838480D01*
X69598367Y-70793539D01*
X69598367Y-70793537D01*
X69598135Y-70790593D01*
X69581793Y-70722522D01*
X69539722Y-70547282D01*
X69539721Y-70547278D01*
X69539030Y-70544401D01*
X69533784Y-70531734D01*
X69443267Y-70313209D01*
X69443266Y-70313208D01*
X69442139Y-70310486D01*
X69309849Y-70094608D01*
X69214265Y-69982693D01*
X69147325Y-69904317D01*
X69145417Y-69902083D01*
X68952892Y-69737651D01*
X68737014Y-69605361D01*
X68734291Y-69604233D01*
X68505833Y-69509602D01*
X68505828Y-69509600D01*
X68503099Y-69508470D01*
X68500222Y-69507779D01*
X68500218Y-69507778D01*
X68259781Y-69450055D01*
X68256907Y-69449365D01*
X68253963Y-69449133D01*
X68253961Y-69449133D01*
X68069509Y-69434616D01*
X68069501Y-69434616D01*
X68068031Y-69434500D01*
X67940969Y-69434500D01*
X67939499Y-69434616D01*
X67939491Y-69434616D01*
X67755039Y-69449133D01*
X67755037Y-69449133D01*
X67752093Y-69449365D01*
X67749219Y-69450055D01*
X67508782Y-69507778D01*
X67508778Y-69507779D01*
X67505901Y-69508470D01*
X67503172Y-69509600D01*
X67503167Y-69509602D01*
X67274709Y-69604233D01*
X67271986Y-69605361D01*
X67056108Y-69737651D01*
X66863583Y-69902083D01*
X66861675Y-69904317D01*
X66794736Y-69982693D01*
X66699151Y-70094608D01*
X66566861Y-70310486D01*
X66565734Y-70313208D01*
X66565733Y-70313209D01*
X66475217Y-70531734D01*
X66469970Y-70544401D01*
X66469279Y-70547278D01*
X66469278Y-70547282D01*
X66427207Y-70722522D01*
X66410865Y-70790593D01*
X66410633Y-70793537D01*
X66410633Y-70793539D01*
X66407096Y-70838480D01*
X66391000Y-71043000D01*
X66161926Y-71043000D01*
X66161624Y-71026401D01*
X66161624Y-71026399D01*
X66161534Y-71021476D01*
X66159439Y-71014190D01*
X66156513Y-70994013D01*
X66155659Y-70887313D01*
X66155260Y-70837433D01*
X66156975Y-70820856D01*
X66159563Y-70808951D01*
X66160611Y-70804133D01*
X66159017Y-70770743D01*
X66159046Y-70770038D01*
X66161159Y-70764937D01*
X66157769Y-70739184D01*
X66157213Y-70732967D01*
X66156714Y-70722522D01*
X66156714Y-70722521D01*
X66156479Y-70717593D01*
X66154976Y-70712892D01*
X66154314Y-70709227D01*
X66153352Y-70705635D01*
X66152708Y-70700746D01*
X66146810Y-70686506D01*
X66144664Y-70680646D01*
X66139773Y-70665353D01*
X66136758Y-70655925D01*
X66132672Y-70652211D01*
X66132345Y-70651586D01*
X66120847Y-70623826D01*
X66119313Y-70619307D01*
X66119313Y-70610686D01*
X66107944Y-70590995D01*
X66103591Y-70582168D01*
X66102610Y-70579800D01*
X66102608Y-70579796D01*
X66100723Y-70575244D01*
X66097724Y-70571335D01*
X66097722Y-70571332D01*
X66096150Y-70569283D01*
X66090694Y-70561117D01*
X66089404Y-70558884D01*
X66086940Y-70554616D01*
X66081639Y-70549315D01*
X66075152Y-70541919D01*
X66067336Y-70531733D01*
X66067337Y-70531733D01*
X66061309Y-70523878D01*
X66053344Y-70520579D01*
X66049754Y-70517430D01*
X66028069Y-70495745D01*
X66024920Y-70492155D01*
X66021621Y-70484190D01*
X66013768Y-70478164D01*
X66013767Y-70478163D01*
X66009726Y-70475063D01*
X65982087Y-70431680D01*
X65988800Y-70380680D01*
X66002330Y-70362228D01*
X66082094Y-70282464D01*
X66139960Y-70168894D01*
X66159900Y-70043000D01*
X66139960Y-69917106D01*
X66132306Y-69902083D01*
X66084783Y-69808813D01*
X66084782Y-69808812D01*
X66082094Y-69803536D01*
X66024732Y-69746174D01*
X66002992Y-69699554D01*
X66016306Y-69649867D01*
X66024732Y-69639826D01*
X66082094Y-69582464D01*
X66119796Y-69508470D01*
X66137273Y-69474168D01*
X66137273Y-69474167D01*
X66139960Y-69468894D01*
X66159900Y-69343000D01*
X66139960Y-69217106D01*
X66082094Y-69103536D01*
X66024732Y-69046174D01*
X66002992Y-68999554D01*
X66016306Y-68949867D01*
X66024732Y-68939826D01*
X66082094Y-68882464D01*
X66136962Y-68774779D01*
X66137273Y-68774168D01*
X66137273Y-68774167D01*
X66139960Y-68768894D01*
X66159900Y-68643000D01*
X66139960Y-68517106D01*
X66089403Y-68417881D01*
X66084783Y-68408813D01*
X66084782Y-68408812D01*
X66082094Y-68403536D01*
X66024732Y-68346174D01*
X66002992Y-68299554D01*
X66016306Y-68249867D01*
X66024732Y-68239826D01*
X66082094Y-68182464D01*
X66107408Y-68132783D01*
X66137273Y-68074168D01*
X66137273Y-68074167D01*
X66139960Y-68068894D01*
X66159900Y-67943000D01*
X66139960Y-67817106D01*
X66116821Y-67771693D01*
X66084783Y-67708813D01*
X66084782Y-67708812D01*
X66082094Y-67703536D01*
X66024732Y-67646174D01*
X66002992Y-67599554D01*
X66016306Y-67549867D01*
X66024732Y-67539826D01*
X66082094Y-67482464D01*
X66099116Y-67449057D01*
X66137273Y-67374168D01*
X66137273Y-67374167D01*
X66139960Y-67368894D01*
X66159900Y-67243000D01*
X66139960Y-67117106D01*
X66093096Y-67025128D01*
X66084783Y-67008813D01*
X66084782Y-67008812D01*
X66082094Y-67003536D01*
X66028457Y-66949899D01*
X73354314Y-66949899D01*
X73394106Y-67069170D01*
X73397873Y-67074106D01*
X73397874Y-67074108D01*
X73435152Y-67122953D01*
X73470387Y-67169122D01*
X73475555Y-67172575D01*
X73479676Y-67176445D01*
X73502871Y-67222359D01*
X73503400Y-67231265D01*
X73503400Y-67265233D01*
X73503297Y-67269167D01*
X73501282Y-67307621D01*
X73506003Y-67319918D01*
X73510145Y-67330709D01*
X73513495Y-67342022D01*
X73516994Y-67358483D01*
X73516996Y-67358488D01*
X73518639Y-67366217D01*
X73523710Y-67373197D01*
X73533076Y-67390447D01*
X73534050Y-67392985D01*
X73534053Y-67392989D01*
X73536168Y-67398500D01*
X73536866Y-67399363D01*
X73554089Y-67416586D01*
X73561753Y-67425558D01*
X73575857Y-67444970D01*
X73582699Y-67448920D01*
X73582701Y-67448922D01*
X73582936Y-67449057D01*
X73598510Y-67461007D01*
X73820424Y-67682920D01*
X73823135Y-67685777D01*
X73848899Y-67714391D01*
X73871502Y-67724454D01*
X73881858Y-67730076D01*
X73902606Y-67743551D01*
X73911124Y-67744900D01*
X73929949Y-67750476D01*
X73937828Y-67753984D01*
X73938932Y-67754100D01*
X73963293Y-67754100D01*
X73975057Y-67755026D01*
X73990946Y-67757543D01*
X73990948Y-67757543D01*
X73998752Y-67758779D01*
X74006383Y-67756734D01*
X74006386Y-67756734D01*
X74006653Y-67756662D01*
X74026116Y-67754100D01*
X74059654Y-67754100D01*
X74107992Y-67771693D01*
X74133712Y-67816242D01*
X74126658Y-67863439D01*
X74112760Y-67890716D01*
X74092600Y-68018000D01*
X74112760Y-68145284D01*
X74171266Y-68260109D01*
X74262391Y-68351234D01*
X74267667Y-68353922D01*
X74267668Y-68353923D01*
X74285654Y-68363087D01*
X74377216Y-68409740D01*
X74504500Y-68429900D01*
X74510346Y-68428974D01*
X74542540Y-68423875D01*
X74593035Y-68433690D01*
X74607478Y-68444975D01*
X74861414Y-68698911D01*
X74864125Y-68701766D01*
X74889899Y-68730391D01*
X74912498Y-68740453D01*
X74922859Y-68746079D01*
X74936975Y-68755246D01*
X74936979Y-68755248D01*
X74943606Y-68759551D01*
X74952124Y-68760900D01*
X74970949Y-68766476D01*
X74978828Y-68769984D01*
X74979932Y-68770100D01*
X75004293Y-68770100D01*
X75016057Y-68771026D01*
X75031946Y-68773543D01*
X75031948Y-68773543D01*
X75039752Y-68774779D01*
X75047384Y-68772734D01*
X75047385Y-68772734D01*
X75047484Y-68772707D01*
X75047654Y-68772662D01*
X75067115Y-68770100D01*
X76012733Y-68770100D01*
X76016667Y-68770203D01*
X76055121Y-68772218D01*
X76078212Y-68763354D01*
X76089522Y-68760005D01*
X76105983Y-68756506D01*
X76105988Y-68756504D01*
X76113717Y-68754861D01*
X76120697Y-68749790D01*
X76137947Y-68740424D01*
X76140485Y-68739450D01*
X76140489Y-68739447D01*
X76146000Y-68737332D01*
X76146863Y-68736634D01*
X76164086Y-68719411D01*
X76173058Y-68711747D01*
X76184674Y-68703307D01*
X76192470Y-68697643D01*
X76196420Y-68690801D01*
X76196422Y-68690799D01*
X76196557Y-68690564D01*
X76208507Y-68674990D01*
X76430420Y-68453076D01*
X76433277Y-68450365D01*
X76456015Y-68429892D01*
X76456016Y-68429891D01*
X76461891Y-68424601D01*
X76471954Y-68401998D01*
X76477576Y-68391642D01*
X76491051Y-68370894D01*
X76492400Y-68362376D01*
X76497976Y-68343551D01*
X76499078Y-68341076D01*
X76501484Y-68335672D01*
X76501600Y-68334568D01*
X76501600Y-68310207D01*
X76502526Y-68298443D01*
X76505043Y-68282554D01*
X76505043Y-68282552D01*
X76506279Y-68274748D01*
X76504234Y-68267117D01*
X76504234Y-68267114D01*
X76504162Y-68266847D01*
X76501600Y-68247384D01*
X76501600Y-67225457D01*
X76519193Y-67177119D01*
X76526628Y-67169441D01*
X76566696Y-67133553D01*
X76571327Y-67129405D01*
X76574941Y-67122953D01*
X76629725Y-67025128D01*
X76629725Y-67025127D01*
X76632763Y-67019703D01*
X76652177Y-66913406D01*
X76654769Y-66899213D01*
X76654769Y-66899210D01*
X76655353Y-66896014D01*
X76655400Y-66890000D01*
X76643466Y-66818302D01*
X76635777Y-66772104D01*
X76635776Y-66772102D01*
X76634756Y-66765972D01*
X76575050Y-66655318D01*
X76482721Y-66569969D01*
X76367723Y-66519130D01*
X76299759Y-66513243D01*
X76248651Y-66508816D01*
X76248648Y-66508816D01*
X76242458Y-66508280D01*
X76236428Y-66509778D01*
X76236426Y-66509778D01*
X76126462Y-66537094D01*
X76120432Y-66538592D01*
X76115214Y-66541961D01*
X76115212Y-66541962D01*
X76065300Y-66574190D01*
X76014804Y-66606795D01*
X76010956Y-66611676D01*
X75972240Y-66660787D01*
X75936962Y-66705537D01*
X75895302Y-66824168D01*
X75894314Y-66949899D01*
X75934106Y-67069170D01*
X75937873Y-67074106D01*
X75937874Y-67074108D01*
X75975152Y-67122953D01*
X76010387Y-67169122D01*
X76015555Y-67172575D01*
X76019676Y-67176445D01*
X76042871Y-67222359D01*
X76043400Y-67231265D01*
X76043400Y-67875986D01*
X76025807Y-67924324D01*
X75981258Y-67950044D01*
X75930600Y-67941111D01*
X75896680Y-67899222D01*
X75895166Y-67894561D01*
X75894240Y-67888716D01*
X75891171Y-67882693D01*
X75838423Y-67779168D01*
X75838422Y-67779167D01*
X75835734Y-67773891D01*
X75744609Y-67682766D01*
X75629784Y-67624260D01*
X75502500Y-67604100D01*
X75496653Y-67605026D01*
X75464459Y-67610125D01*
X75413964Y-67600310D01*
X75399521Y-67589025D01*
X75177595Y-67367099D01*
X75174884Y-67364244D01*
X75154389Y-67341482D01*
X75149101Y-67335609D01*
X75126498Y-67325546D01*
X75116142Y-67319924D01*
X75095394Y-67306449D01*
X75086876Y-67305100D01*
X75068051Y-67299524D01*
X75065576Y-67298422D01*
X75060172Y-67296016D01*
X75059068Y-67295900D01*
X75034707Y-67295900D01*
X75022943Y-67294974D01*
X75007054Y-67292457D01*
X75007052Y-67292457D01*
X74999248Y-67291221D01*
X74991617Y-67293266D01*
X74991614Y-67293266D01*
X74991347Y-67293338D01*
X74971884Y-67295900D01*
X74112545Y-67295900D01*
X74064207Y-67278307D01*
X74059371Y-67273874D01*
X74026092Y-67240595D01*
X74004352Y-67193975D01*
X74017666Y-67144288D01*
X74022855Y-67138438D01*
X74022811Y-67138402D01*
X74026696Y-67133553D01*
X74031327Y-67129405D01*
X74034941Y-67122953D01*
X74089725Y-67025128D01*
X74089725Y-67025127D01*
X74092763Y-67019703D01*
X74112177Y-66913406D01*
X74114769Y-66899213D01*
X74114769Y-66899210D01*
X74115353Y-66896014D01*
X74115400Y-66890000D01*
X74103466Y-66818302D01*
X74095777Y-66772104D01*
X74095776Y-66772102D01*
X74094756Y-66765972D01*
X74035050Y-66655318D01*
X73942721Y-66569969D01*
X73827723Y-66519130D01*
X73759759Y-66513243D01*
X73708651Y-66508816D01*
X73708648Y-66508816D01*
X73702458Y-66508280D01*
X73696428Y-66509778D01*
X73696426Y-66509778D01*
X73586462Y-66537094D01*
X73580432Y-66538592D01*
X73575214Y-66541961D01*
X73575212Y-66541962D01*
X73525300Y-66574190D01*
X73474804Y-66606795D01*
X73470956Y-66611676D01*
X73432240Y-66660787D01*
X73396962Y-66705537D01*
X73355302Y-66824168D01*
X73354314Y-66949899D01*
X66028457Y-66949899D01*
X66024732Y-66946174D01*
X66002992Y-66899554D01*
X66016306Y-66849867D01*
X66024732Y-66839826D01*
X66082094Y-66782464D01*
X66139960Y-66668894D01*
X66159900Y-66543000D01*
X66139960Y-66417106D01*
X66082094Y-66303536D01*
X66024732Y-66246174D01*
X66002992Y-66199554D01*
X66016306Y-66149867D01*
X66024732Y-66139826D01*
X66082094Y-66082464D01*
X66139960Y-65968894D01*
X66159900Y-65843000D01*
X66139960Y-65717106D01*
X66082094Y-65603536D01*
X66024732Y-65546174D01*
X66002992Y-65499554D01*
X66016306Y-65449867D01*
X66024732Y-65439826D01*
X66082094Y-65382464D01*
X66087652Y-65371557D01*
X66137273Y-65274168D01*
X66137273Y-65274167D01*
X66139960Y-65268894D01*
X66144695Y-65239000D01*
X72140600Y-65239000D01*
X72160760Y-65366284D01*
X72219266Y-65481109D01*
X72310391Y-65572234D01*
X72425216Y-65630740D01*
X72552500Y-65650900D01*
X72558346Y-65649974D01*
X72578222Y-65646826D01*
X72589986Y-65645900D01*
X77415014Y-65645900D01*
X77426779Y-65646826D01*
X77452500Y-65650900D01*
X77458346Y-65649974D01*
X77484068Y-65645900D01*
X77573937Y-65631666D01*
X77579784Y-65630740D01*
X77694609Y-65572234D01*
X77785734Y-65481109D01*
X77844240Y-65366284D01*
X77864400Y-65239000D01*
X77844240Y-65111716D01*
X77785734Y-64996891D01*
X77694609Y-64905766D01*
X77579784Y-64847260D01*
X77484068Y-64832100D01*
X77452500Y-64827100D01*
X77446654Y-64828026D01*
X77426778Y-64831174D01*
X77415014Y-64832100D01*
X72589986Y-64832100D01*
X72578222Y-64831174D01*
X72558346Y-64828026D01*
X72552500Y-64827100D01*
X72425216Y-64847260D01*
X72310391Y-64905766D01*
X72219266Y-64996891D01*
X72160760Y-65111716D01*
X72140600Y-65239000D01*
X66144695Y-65239000D01*
X66159900Y-65143000D01*
X66139960Y-65017106D01*
X66082094Y-64903536D01*
X66024732Y-64846174D01*
X66002992Y-64799554D01*
X66016306Y-64749867D01*
X66024732Y-64739826D01*
X66082094Y-64682464D01*
X66139960Y-64568894D01*
X66159900Y-64443000D01*
X66139960Y-64317106D01*
X66082094Y-64203536D01*
X66024732Y-64146174D01*
X66002992Y-64099554D01*
X66016306Y-64049867D01*
X66024732Y-64039826D01*
X66082094Y-63982464D01*
X66139960Y-63868894D01*
X66159900Y-63743000D01*
X66139960Y-63617106D01*
X66082094Y-63503536D01*
X66024732Y-63446174D01*
X66002992Y-63399554D01*
X66016306Y-63349867D01*
X66024732Y-63339826D01*
X66082094Y-63282464D01*
X66089929Y-63267088D01*
X66137273Y-63174168D01*
X66137273Y-63174167D01*
X66139960Y-63168894D01*
X66159900Y-63043000D01*
X66139960Y-62917106D01*
X66082094Y-62803536D01*
X66064658Y-62786100D01*
X71629636Y-62786100D01*
X71630330Y-62791407D01*
X71630330Y-62791410D01*
X71630787Y-62794901D01*
X71647389Y-62921861D01*
X71702532Y-63047183D01*
X71790631Y-63151990D01*
X71795090Y-63154958D01*
X71795091Y-63154959D01*
X71900145Y-63224889D01*
X71900148Y-63224890D01*
X71904606Y-63227858D01*
X72035293Y-63268688D01*
X72105775Y-63269980D01*
X72166825Y-63271099D01*
X72166827Y-63271099D01*
X72172187Y-63271197D01*
X72177358Y-63269787D01*
X72177360Y-63269787D01*
X72248969Y-63250264D01*
X72304283Y-63235184D01*
X72420961Y-63163543D01*
X72424553Y-63159575D01*
X72424555Y-63159573D01*
X72509247Y-63066006D01*
X72509248Y-63066005D01*
X72512842Y-63062034D01*
X72520038Y-63047183D01*
X72570203Y-62943641D01*
X72572540Y-62938818D01*
X72595256Y-62803798D01*
X72595311Y-62799346D01*
X72595365Y-62794901D01*
X72595365Y-62794896D01*
X72595400Y-62792000D01*
X72594555Y-62786100D01*
X77409636Y-62786100D01*
X77410330Y-62791407D01*
X77410330Y-62791410D01*
X77410787Y-62794901D01*
X77427389Y-62921861D01*
X77482532Y-63047183D01*
X77570631Y-63151990D01*
X77575090Y-63154958D01*
X77575091Y-63154959D01*
X77680145Y-63224889D01*
X77680148Y-63224890D01*
X77684606Y-63227858D01*
X77815293Y-63268688D01*
X77885775Y-63269980D01*
X77946825Y-63271099D01*
X77946827Y-63271099D01*
X77952187Y-63271197D01*
X77957358Y-63269787D01*
X77957360Y-63269787D01*
X78028969Y-63250264D01*
X78084283Y-63235184D01*
X78200961Y-63163543D01*
X78204553Y-63159575D01*
X78204555Y-63159573D01*
X78289247Y-63066006D01*
X78289248Y-63066005D01*
X78292842Y-63062034D01*
X78300038Y-63047183D01*
X78350203Y-62943641D01*
X78352540Y-62938818D01*
X78375256Y-62803798D01*
X78375311Y-62799346D01*
X78375365Y-62794901D01*
X78375365Y-62794896D01*
X78375400Y-62792000D01*
X78373798Y-62780810D01*
X78356749Y-62661764D01*
X78356748Y-62661762D01*
X78355990Y-62656466D01*
X78299320Y-62531828D01*
X78249638Y-62474168D01*
X78213442Y-62432160D01*
X78213441Y-62432159D01*
X78209947Y-62428104D01*
X78095053Y-62353634D01*
X78039948Y-62337154D01*
X77969011Y-62315939D01*
X77969008Y-62315939D01*
X77963877Y-62314404D01*
X77958522Y-62314371D01*
X77958520Y-62314371D01*
X77897350Y-62313998D01*
X77826963Y-62313568D01*
X77695317Y-62351192D01*
X77579523Y-62424253D01*
X77575978Y-62428266D01*
X77575979Y-62428266D01*
X77492435Y-62522861D01*
X77492433Y-62522865D01*
X77488889Y-62526877D01*
X77430700Y-62650814D01*
X77409636Y-62786100D01*
X72594555Y-62786100D01*
X72593798Y-62780810D01*
X72576749Y-62661764D01*
X72576748Y-62661762D01*
X72575990Y-62656466D01*
X72519320Y-62531828D01*
X72469638Y-62474168D01*
X72433442Y-62432160D01*
X72433441Y-62432159D01*
X72429947Y-62428104D01*
X72315053Y-62353634D01*
X72259948Y-62337154D01*
X72189011Y-62315939D01*
X72189008Y-62315939D01*
X72183877Y-62314404D01*
X72178522Y-62314371D01*
X72178520Y-62314371D01*
X72117350Y-62313998D01*
X72046963Y-62313568D01*
X71915317Y-62351192D01*
X71799523Y-62424253D01*
X71795978Y-62428266D01*
X71795979Y-62428266D01*
X71712435Y-62522861D01*
X71712433Y-62522865D01*
X71708889Y-62526877D01*
X71650700Y-62650814D01*
X71629636Y-62786100D01*
X66064658Y-62786100D01*
X66024732Y-62746174D01*
X66002992Y-62699554D01*
X66016306Y-62649867D01*
X66024732Y-62639826D01*
X66082094Y-62582464D01*
X66107947Y-62531725D01*
X66137273Y-62474168D01*
X66137273Y-62474167D01*
X66139960Y-62468894D01*
X66159900Y-62343000D01*
X66139960Y-62217106D01*
X66082094Y-62103536D01*
X66024732Y-62046174D01*
X66002992Y-61999554D01*
X66016306Y-61949867D01*
X66024732Y-61939826D01*
X66082094Y-61882464D01*
X66139960Y-61768894D01*
X66159900Y-61643000D01*
X66139960Y-61517106D01*
X66082094Y-61403536D01*
X66024732Y-61346174D01*
X66002992Y-61299554D01*
X66016306Y-61249867D01*
X66024732Y-61239826D01*
X66082094Y-61182464D01*
X66139960Y-61068894D01*
X66159900Y-60943000D01*
X66139960Y-60817106D01*
X66082094Y-60703536D01*
X66024732Y-60646174D01*
X66002992Y-60599554D01*
X66016306Y-60549867D01*
X66024732Y-60539826D01*
X66082094Y-60482464D01*
X66139960Y-60368894D01*
X66159900Y-60243000D01*
X66139960Y-60117106D01*
X66137273Y-60111832D01*
X66084783Y-60008813D01*
X66084782Y-60008812D01*
X66082094Y-60003536D01*
X66024732Y-59946174D01*
X66002992Y-59899554D01*
X66016306Y-59849867D01*
X66024732Y-59839826D01*
X66082094Y-59782464D01*
X66087789Y-59771288D01*
X66137273Y-59674168D01*
X66137273Y-59674167D01*
X66139960Y-59668894D01*
X66159900Y-59543000D01*
X66139960Y-59417106D01*
X66130480Y-59398500D01*
X66084783Y-59308813D01*
X66084782Y-59308812D01*
X66082094Y-59303536D01*
X66026806Y-59248248D01*
X66005066Y-59201628D01*
X66019010Y-59153813D01*
X66021621Y-59151810D01*
X66024921Y-59143843D01*
X66028069Y-59140255D01*
X66049754Y-59118570D01*
X66053344Y-59115421D01*
X66061309Y-59112122D01*
X66075153Y-59094080D01*
X66081639Y-59086685D01*
X66086940Y-59081384D01*
X66090206Y-59075729D01*
X66090694Y-59074883D01*
X66096150Y-59066717D01*
X66097722Y-59064668D01*
X66097724Y-59064665D01*
X66100723Y-59060756D01*
X66103230Y-59054703D01*
X66103591Y-59053832D01*
X66107944Y-59045004D01*
X66114363Y-59033887D01*
X66114364Y-59033885D01*
X66119313Y-59025314D01*
X66119313Y-59016693D01*
X66120847Y-59012174D01*
X66132346Y-58984412D01*
X66132672Y-58983789D01*
X66136758Y-58980075D01*
X66144664Y-58955352D01*
X66146814Y-58949482D01*
X66152708Y-58935254D01*
X66153351Y-58930372D01*
X66154313Y-58926781D01*
X66154976Y-58923106D01*
X66156479Y-58918407D01*
X66157214Y-58903026D01*
X66157770Y-58896803D01*
X66161159Y-58871063D01*
X66159046Y-58865962D01*
X66159017Y-58865254D01*
X66159604Y-58852970D01*
X66160611Y-58831867D01*
X66159566Y-58827058D01*
X66159565Y-58827052D01*
X66156916Y-58814868D01*
X66155202Y-58798393D01*
X66156404Y-58617923D01*
X66156404Y-58617922D01*
X66156408Y-58617429D01*
X66156578Y-58591863D01*
X66159504Y-58571584D01*
X66160172Y-58569261D01*
X66160172Y-58569260D01*
X66161534Y-58564524D01*
X66161639Y-58558792D01*
X66161927Y-58543000D01*
X66391000Y-58543000D01*
X66391232Y-58545948D01*
X66410087Y-58785516D01*
X66410865Y-58795407D01*
X66411555Y-58798281D01*
X66468119Y-59033887D01*
X66469970Y-59041599D01*
X66471100Y-59044328D01*
X66471102Y-59044333D01*
X66542782Y-59217383D01*
X66566861Y-59275514D01*
X66699151Y-59491392D01*
X66701063Y-59493631D01*
X66701064Y-59493632D01*
X66804626Y-59614887D01*
X66863583Y-59683917D01*
X66865817Y-59685825D01*
X67022936Y-59820017D01*
X67056108Y-59848349D01*
X67271986Y-59980639D01*
X67274708Y-59981766D01*
X67274709Y-59981767D01*
X67503167Y-60076398D01*
X67503172Y-60076400D01*
X67505901Y-60077530D01*
X67508778Y-60078221D01*
X67508782Y-60078222D01*
X67648780Y-60111832D01*
X67752093Y-60136635D01*
X67755037Y-60136867D01*
X67755039Y-60136867D01*
X67939491Y-60151384D01*
X67939499Y-60151384D01*
X67940969Y-60151500D01*
X68068031Y-60151500D01*
X68069501Y-60151384D01*
X68069509Y-60151384D01*
X68253961Y-60136867D01*
X68253963Y-60136867D01*
X68256907Y-60136635D01*
X68360220Y-60111832D01*
X68500218Y-60078222D01*
X68500222Y-60078221D01*
X68503099Y-60077530D01*
X68505828Y-60076400D01*
X68505833Y-60076398D01*
X68734291Y-59981767D01*
X68734292Y-59981766D01*
X68737014Y-59980639D01*
X68952892Y-59848349D01*
X68986065Y-59820017D01*
X69143183Y-59685825D01*
X69145417Y-59683917D01*
X69204374Y-59614887D01*
X69307936Y-59493632D01*
X69307937Y-59493631D01*
X69309849Y-59491392D01*
X69442139Y-59275514D01*
X69466218Y-59217383D01*
X69537898Y-59044333D01*
X69537900Y-59044328D01*
X69539030Y-59041599D01*
X69540882Y-59033887D01*
X69597445Y-58798281D01*
X69598135Y-58795407D01*
X69598914Y-58785516D01*
X69617768Y-58545948D01*
X69618000Y-58543000D01*
X69610509Y-58447816D01*
X69598367Y-58293539D01*
X69598367Y-58293537D01*
X69598135Y-58290593D01*
X69594358Y-58274860D01*
X69539722Y-58047282D01*
X69539721Y-58047278D01*
X69539030Y-58044401D01*
X69537710Y-58041213D01*
X69502609Y-57956473D01*
X71313471Y-57956473D01*
X71313471Y-57957061D01*
X71313492Y-57979311D01*
X71313494Y-57980129D01*
X71313544Y-57999836D01*
X71313547Y-58000826D01*
X71313624Y-58018073D01*
X71313632Y-58019440D01*
X71313738Y-58034310D01*
X71313754Y-58036121D01*
X71313888Y-58048697D01*
X71313923Y-58051350D01*
X71314087Y-58061715D01*
X71314164Y-58065618D01*
X71314357Y-58073856D01*
X71314549Y-58080307D01*
X71314772Y-58086500D01*
X71315355Y-58098673D01*
X71315364Y-58098822D01*
X71315476Y-58100689D01*
X71315608Y-58102904D01*
X71316614Y-58116642D01*
X71316654Y-58117103D01*
X71318791Y-58137147D01*
X71318834Y-58137486D01*
X71320456Y-58150308D01*
X71322245Y-58164456D01*
X71329101Y-58205334D01*
X71334338Y-58230327D01*
X71346669Y-58277768D01*
X71346928Y-58278599D01*
X71349770Y-58287719D01*
X71353768Y-58300552D01*
X71373544Y-58353549D01*
X71382586Y-58374225D01*
X71411262Y-58430188D01*
X71422324Y-58448862D01*
X71423005Y-58449857D01*
X71423008Y-58449862D01*
X71428584Y-58458011D01*
X71460151Y-58504146D01*
X71460904Y-58505105D01*
X71460905Y-58505107D01*
X71472547Y-58519944D01*
X71472556Y-58519954D01*
X71473315Y-58520922D01*
X71474129Y-58521830D01*
X71474139Y-58521841D01*
X71485961Y-58535015D01*
X71518551Y-58571333D01*
X71533895Y-58586315D01*
X71549603Y-58599819D01*
X71582322Y-58627948D01*
X71582330Y-58627955D01*
X71583224Y-58628723D01*
X71600828Y-58642014D01*
X71601720Y-58642610D01*
X71601722Y-58642611D01*
X71642537Y-58669863D01*
X71650308Y-58675052D01*
X71670252Y-58686758D01*
X71716681Y-58710917D01*
X71739045Y-58721141D01*
X71757035Y-58728518D01*
X71776015Y-58736301D01*
X71776043Y-58736312D01*
X71776697Y-58736580D01*
X71796585Y-58743829D01*
X71826728Y-58753772D01*
X71846619Y-58759658D01*
X71875741Y-58767354D01*
X71896794Y-58772262D01*
X71924061Y-58777845D01*
X71946645Y-58781834D01*
X71970847Y-58785516D01*
X71971283Y-58785572D01*
X71971292Y-58785573D01*
X71994985Y-58788602D01*
X71995007Y-58788605D01*
X71995331Y-58788646D01*
X71995680Y-58788683D01*
X71995693Y-58788685D01*
X72002722Y-58789440D01*
X72015913Y-58790856D01*
X72021806Y-58791369D01*
X72042412Y-58793163D01*
X72042439Y-58793165D01*
X72042667Y-58793185D01*
X72042925Y-58793204D01*
X72042964Y-58793207D01*
X72056552Y-58794202D01*
X72056592Y-58794205D01*
X72056747Y-58794216D01*
X72056903Y-58794225D01*
X72056914Y-58794226D01*
X72062056Y-58794531D01*
X72075128Y-58795308D01*
X72085497Y-58795789D01*
X72088105Y-58795910D01*
X72088109Y-58795910D01*
X72088429Y-58795925D01*
X72093037Y-58796079D01*
X72095760Y-58796151D01*
X72099986Y-58796264D01*
X72100112Y-58796267D01*
X72107601Y-58796414D01*
X72110606Y-58796464D01*
X72110671Y-58796465D01*
X72110694Y-58796465D01*
X72120986Y-58796605D01*
X72122729Y-58796627D01*
X72122764Y-58796627D01*
X72135783Y-58796759D01*
X72135952Y-58796761D01*
X72135985Y-58796761D01*
X72136892Y-58796769D01*
X72152559Y-58796894D01*
X72153362Y-58796899D01*
X72153362Y-58796900D01*
X72153376Y-58796899D01*
X72168561Y-58796996D01*
X72171598Y-58797016D01*
X72171601Y-58797016D01*
X72172220Y-58797020D01*
X72192953Y-58797128D01*
X72193408Y-58797130D01*
X72193410Y-58797130D01*
X72193676Y-58797131D01*
X72216473Y-58797230D01*
X72216559Y-58797230D01*
X72216924Y-58797232D01*
X72242413Y-58797324D01*
X72242749Y-58797325D01*
X72270500Y-58797407D01*
X72270765Y-58797407D01*
X72300700Y-58797480D01*
X72300926Y-58797481D01*
X72332969Y-58797545D01*
X72333365Y-58797545D01*
X72367067Y-58797598D01*
X72367315Y-58797598D01*
X72367440Y-58797599D01*
X72403464Y-58797643D01*
X72403644Y-58797643D01*
X72441544Y-58797676D01*
X72441693Y-58797676D01*
X72481390Y-58797699D01*
X72481539Y-58797699D01*
X72522957Y-58797711D01*
X72523073Y-58797711D01*
X72538569Y-58797712D01*
X72538575Y-58797712D01*
X72940686Y-58797733D01*
X72942014Y-58797733D01*
X72943325Y-58797639D01*
X72943332Y-58797639D01*
X72967511Y-58795910D01*
X73015120Y-58792506D01*
X73016581Y-58792077D01*
X73038958Y-58791677D01*
X73056855Y-58794250D01*
X73078422Y-58797351D01*
X73078426Y-58797351D01*
X73081081Y-58797733D01*
X73496670Y-58797733D01*
X73545008Y-58815326D01*
X73570728Y-58859875D01*
X73566326Y-58899848D01*
X73566801Y-58900027D01*
X73566360Y-58901195D01*
X73565885Y-58902338D01*
X73559000Y-58922577D01*
X73558710Y-58923629D01*
X73558709Y-58923633D01*
X73549972Y-58955353D01*
X73542886Y-58981077D01*
X73542656Y-58982158D01*
X73542655Y-58982162D01*
X73541651Y-58986883D01*
X73538153Y-59003319D01*
X73533079Y-59030819D01*
X73532941Y-59031701D01*
X73529873Y-59054703D01*
X73529827Y-59055121D01*
X73529825Y-59055136D01*
X73529707Y-59056204D01*
X73529161Y-59061149D01*
X73527154Y-59083981D01*
X73527124Y-59084445D01*
X73526749Y-59090174D01*
X73526573Y-59092856D01*
X73525916Y-59105149D01*
X73525906Y-59105399D01*
X73525468Y-59115965D01*
X73525201Y-59123907D01*
X73524883Y-59136172D01*
X73524879Y-59136363D01*
X73524761Y-59142261D01*
X73524575Y-59155488D01*
X73524574Y-59155612D01*
X73524528Y-59160646D01*
X73524528Y-59160737D01*
X73524473Y-59174250D01*
X73524473Y-59174345D01*
X73524477Y-59179222D01*
X73524552Y-59192903D01*
X73524606Y-59198039D01*
X73524810Y-59211213D01*
X73524942Y-59217383D01*
X73525277Y-59229560D01*
X73525566Y-59237700D01*
X73526030Y-59248393D01*
X73526727Y-59260925D01*
X73527319Y-59269642D01*
X73529528Y-59293749D01*
X73530250Y-59300002D01*
X73530304Y-59300396D01*
X73530311Y-59300453D01*
X73531816Y-59311466D01*
X73530599Y-59338488D01*
X73529943Y-59341344D01*
X73525239Y-59364188D01*
X73524220Y-59369776D01*
X73520624Y-59392321D01*
X73519779Y-59398500D01*
X73517449Y-59418436D01*
X73516767Y-59425458D01*
X73515461Y-59441526D01*
X73514929Y-59449646D01*
X73514276Y-59461815D01*
X73514267Y-59462022D01*
X73514265Y-59462071D01*
X73513885Y-59471182D01*
X73513881Y-59471284D01*
X73513587Y-59480213D01*
X73513318Y-59491284D01*
X73513203Y-59497561D01*
X73513047Y-59510488D01*
X73513013Y-59514805D01*
X73512958Y-59529839D01*
X73512956Y-59532722D01*
X73512956Y-59532869D01*
X73512990Y-59550118D01*
X73512997Y-59551937D01*
X73513107Y-59571947D01*
X73513112Y-59572768D01*
X73513168Y-59580659D01*
X73513170Y-59580954D01*
X73513316Y-59599985D01*
X73513322Y-59600724D01*
X73513471Y-59617080D01*
X73513493Y-59619020D01*
X73513673Y-59632986D01*
X73513732Y-59636587D01*
X73513968Y-59648444D01*
X73514125Y-59654545D01*
X73514444Y-59664577D01*
X73514833Y-59674045D01*
X73515260Y-59682537D01*
X73516149Y-59696452D01*
X73516710Y-59703686D01*
X73518545Y-59722737D01*
X73519266Y-59728997D01*
X73522584Y-59752861D01*
X73523492Y-59758431D01*
X73528478Y-59784694D01*
X73529598Y-59789856D01*
X73535618Y-59814620D01*
X73536976Y-59819658D01*
X73542591Y-59838973D01*
X73544213Y-59844171D01*
X73548105Y-59856126D01*
X73548153Y-59856268D01*
X73548173Y-59856328D01*
X73549048Y-59858905D01*
X73550018Y-59861767D01*
X73551591Y-59866336D01*
X73553391Y-59871484D01*
X73553618Y-59872067D01*
X73553626Y-59872088D01*
X73559223Y-59886446D01*
X73566554Y-59905254D01*
X73574668Y-59924079D01*
X73608330Y-59989016D01*
X73618926Y-60006317D01*
X73619697Y-60007395D01*
X73619701Y-60007401D01*
X73660757Y-60064801D01*
X73661536Y-60065890D01*
X73662385Y-60066914D01*
X73662392Y-60066923D01*
X73670249Y-60076398D01*
X73674632Y-60081684D01*
X73723078Y-60132578D01*
X73724016Y-60133437D01*
X73724025Y-60133446D01*
X73727507Y-60136635D01*
X73738693Y-60146881D01*
X73739602Y-60147614D01*
X73739607Y-60147618D01*
X73788229Y-60186810D01*
X73789156Y-60187557D01*
X73790124Y-60188241D01*
X73806459Y-60199787D01*
X73806470Y-60199795D01*
X73807310Y-60200388D01*
X73808201Y-60200945D01*
X73855577Y-60230566D01*
X73855589Y-60230573D01*
X73856491Y-60231137D01*
X73857432Y-60231654D01*
X73857434Y-60231655D01*
X73876402Y-60242073D01*
X73876411Y-60242078D01*
X73877200Y-60242511D01*
X73922863Y-60264726D01*
X73923703Y-60265084D01*
X73923713Y-60265089D01*
X73945768Y-60274500D01*
X73946148Y-60274662D01*
X73967556Y-60283234D01*
X73968162Y-60283461D01*
X73990406Y-60291217D01*
X73990866Y-60291366D01*
X73990879Y-60291370D01*
X73992173Y-60291788D01*
X74011160Y-60297923D01*
X74050379Y-60308898D01*
X74063713Y-60312065D01*
X74072768Y-60314216D01*
X74072778Y-60314218D01*
X74073375Y-60314360D01*
X74107320Y-60321222D01*
X74107977Y-60321332D01*
X74107983Y-60321333D01*
X74132176Y-60325380D01*
X74132187Y-60325382D01*
X74132709Y-60325469D01*
X74134520Y-60325720D01*
X74160918Y-60329372D01*
X74160941Y-60329375D01*
X74161477Y-60329449D01*
X74162012Y-60329508D01*
X74162031Y-60329510D01*
X74183417Y-60331854D01*
X74189411Y-60332511D01*
X74189703Y-60332539D01*
X74189735Y-60332542D01*
X74203943Y-60333891D01*
X74203999Y-60333896D01*
X74204263Y-60333921D01*
X74204492Y-60333939D01*
X74204533Y-60333943D01*
X74209688Y-60334357D01*
X74209734Y-60334360D01*
X74209917Y-60334375D01*
X74210100Y-60334387D01*
X74210147Y-60334390D01*
X74218993Y-60334951D01*
X74227015Y-60335461D01*
X74231054Y-60335650D01*
X74231134Y-60335653D01*
X74231160Y-60335654D01*
X74241768Y-60336038D01*
X74241804Y-60336039D01*
X74241884Y-60336042D01*
X74241973Y-60336044D01*
X74242029Y-60336046D01*
X74248743Y-60336218D01*
X74248845Y-60336221D01*
X74253274Y-60336315D01*
X74263049Y-60336481D01*
X74265469Y-60336516D01*
X74278022Y-60336670D01*
X74279580Y-60336687D01*
X74294851Y-60336828D01*
X74295897Y-60336837D01*
X74313826Y-60336966D01*
X74314594Y-60336971D01*
X74335120Y-60337088D01*
X74335754Y-60337091D01*
X74358817Y-60337194D01*
X74359321Y-60337196D01*
X74384862Y-60337285D01*
X74385050Y-60337286D01*
X74385237Y-60337286D01*
X74413195Y-60337363D01*
X74413559Y-60337364D01*
X74443875Y-60337426D01*
X74444185Y-60337426D01*
X74476797Y-60337473D01*
X74477032Y-60337474D01*
X74477036Y-60337474D01*
X74511885Y-60337508D01*
X74512136Y-60337508D01*
X74549161Y-60337526D01*
X74549338Y-60337526D01*
X74577482Y-60337530D01*
X74884199Y-60337530D01*
X74889296Y-60337150D01*
X74957952Y-60332032D01*
X74974192Y-60332582D01*
X75006120Y-60337150D01*
X75006124Y-60337150D01*
X75008778Y-60337530D01*
X75375977Y-60337272D01*
X75376007Y-60337272D01*
X75408845Y-60337247D01*
X75408918Y-60337247D01*
X75441022Y-60337218D01*
X75441068Y-60337218D01*
X75472307Y-60337187D01*
X75472374Y-60337187D01*
X75502621Y-60337153D01*
X75502696Y-60337153D01*
X75531822Y-60337116D01*
X75531875Y-60337115D01*
X75531937Y-60337115D01*
X75559764Y-60337076D01*
X75559841Y-60337076D01*
X75586339Y-60337035D01*
X75586428Y-60337035D01*
X75611418Y-60336992D01*
X75611501Y-60336992D01*
X75634854Y-60336948D01*
X75634957Y-60336948D01*
X75656546Y-60336903D01*
X75656675Y-60336903D01*
X75676371Y-60336857D01*
X75676371Y-60336858D01*
X75676685Y-60336856D01*
X75693973Y-60336810D01*
X75694210Y-60336809D01*
X75694432Y-60336809D01*
X75709954Y-60336761D01*
X75710045Y-60336761D01*
X75710189Y-60336812D01*
X75710189Y-60336760D01*
X75723431Y-60336713D01*
X75723883Y-60336711D01*
X75734716Y-60336663D01*
X75735350Y-60336660D01*
X75743646Y-60336613D01*
X75745024Y-60336603D01*
X75750654Y-60336556D01*
X75754517Y-60336509D01*
X75755698Y-60336490D01*
X75757194Y-60336467D01*
X75757255Y-60336466D01*
X75757352Y-60336464D01*
X75757476Y-60336460D01*
X75757529Y-60336459D01*
X75763895Y-60336267D01*
X75772002Y-60336023D01*
X75772272Y-60336011D01*
X75772835Y-60335969D01*
X75772848Y-60335968D01*
X75802838Y-60333719D01*
X75802861Y-60333717D01*
X75803420Y-60333675D01*
X75803970Y-60333617D01*
X75803980Y-60333616D01*
X75828703Y-60331004D01*
X75834600Y-60330381D01*
X75849469Y-60328293D01*
X75868821Y-60325576D01*
X75868850Y-60325571D01*
X75869451Y-60325487D01*
X75898339Y-60320415D01*
X75907717Y-60318387D01*
X75936949Y-60312065D01*
X75936960Y-60312062D01*
X75937660Y-60311911D01*
X75964351Y-60305034D01*
X76007733Y-60291788D01*
X76008498Y-60291517D01*
X76008513Y-60291512D01*
X76031486Y-60283372D01*
X76031503Y-60283365D01*
X76032320Y-60283076D01*
X76078581Y-60264101D01*
X76079393Y-60263721D01*
X76100281Y-60253940D01*
X76100294Y-60253934D01*
X76101160Y-60253528D01*
X76146996Y-60229168D01*
X76166290Y-60217627D01*
X76210000Y-60188340D01*
X76219162Y-60181496D01*
X76249625Y-60156875D01*
X76255913Y-60151384D01*
X76258903Y-60148773D01*
X76258924Y-60148754D01*
X76259326Y-60148403D01*
X76260967Y-60146881D01*
X76281595Y-60127740D01*
X76282022Y-60127344D01*
X76291506Y-60117996D01*
X76297390Y-60111832D01*
X76312685Y-60095810D01*
X76312707Y-60095786D01*
X76313090Y-60095385D01*
X76321599Y-60085910D01*
X76347230Y-60055022D01*
X76354006Y-60046174D01*
X76372557Y-60020329D01*
X76373161Y-60019430D01*
X76391340Y-59990160D01*
X76392227Y-59988731D01*
X76392229Y-59988728D01*
X76392571Y-59988177D01*
X76392887Y-59987625D01*
X76403219Y-59969577D01*
X76403221Y-59969573D01*
X76403793Y-59968574D01*
X76431983Y-59911358D01*
X76432429Y-59910291D01*
X76432435Y-59910277D01*
X76440556Y-59890831D01*
X76440973Y-59889833D01*
X76460552Y-59834150D01*
X76467315Y-59810686D01*
X76475707Y-59777437D01*
X76477110Y-59770976D01*
X76479738Y-59758078D01*
X76480077Y-59756298D01*
X76480678Y-59752861D01*
X76482702Y-59741282D01*
X76482709Y-59741242D01*
X76482756Y-59740971D01*
X76483066Y-59739024D01*
X76485496Y-59721918D01*
X76485777Y-59719668D01*
X76487459Y-59704322D01*
X76487713Y-59701633D01*
X76488728Y-59689303D01*
X76488957Y-59686041D01*
X76489542Y-59676413D01*
X76489746Y-59672440D01*
X76490056Y-59665496D01*
X76490103Y-59664271D01*
X76490236Y-59660742D01*
X76490238Y-59660679D01*
X76490409Y-59655454D01*
X76490569Y-59649655D01*
X76490659Y-59645886D01*
X76490767Y-59640578D01*
X76490799Y-59638971D01*
X76490848Y-59636184D01*
X76490850Y-59636060D01*
X76490969Y-59628017D01*
X76490970Y-59627955D01*
X76490995Y-59625998D01*
X76491099Y-59616442D01*
X76491113Y-59614887D01*
X76491115Y-59614690D01*
X76491200Y-59603809D01*
X76491208Y-59602719D01*
X76491281Y-59589981D01*
X76491285Y-59589123D01*
X76491344Y-59574591D01*
X76491346Y-59574003D01*
X76491394Y-59557541D01*
X76491395Y-59557042D01*
X76491395Y-59557041D01*
X76491431Y-59538596D01*
X76491431Y-59538514D01*
X76491432Y-59538185D01*
X76491459Y-59517455D01*
X76491459Y-59517209D01*
X76491478Y-59494142D01*
X76491478Y-59493980D01*
X76491491Y-59468440D01*
X76491491Y-59468307D01*
X76491498Y-59440159D01*
X76491498Y-59440081D01*
X76491501Y-59409189D01*
X76491501Y-59131047D01*
X76491279Y-59129015D01*
X76491278Y-59129005D01*
X76479561Y-59021979D01*
X76479560Y-59021975D01*
X76479338Y-59019944D01*
X76476026Y-59004999D01*
X76475746Y-59003835D01*
X76471658Y-58986883D01*
X76471657Y-58986878D01*
X76471575Y-58986539D01*
X76466148Y-58965726D01*
X76452574Y-58921819D01*
X76445948Y-58903358D01*
X76424320Y-58852038D01*
X76423887Y-58851149D01*
X76423879Y-58851131D01*
X76416748Y-58836487D01*
X76416260Y-58835484D01*
X76402173Y-58810470D01*
X76393782Y-58759721D01*
X76419976Y-58715450D01*
X76468499Y-58698373D01*
X76508349Y-58710305D01*
X76512072Y-58712698D01*
X76516134Y-58716217D01*
X76649083Y-58776933D01*
X76683171Y-58781834D01*
X76791093Y-58797351D01*
X76791099Y-58797351D01*
X76793753Y-58797733D01*
X76937231Y-58797733D01*
X77010310Y-58792506D01*
X77039998Y-58783789D01*
X77072264Y-58774315D01*
X77111360Y-58773433D01*
X77113716Y-58774011D01*
X77113760Y-58774021D01*
X77114343Y-58774164D01*
X77127334Y-58776907D01*
X77146281Y-58780908D01*
X77146300Y-58780912D01*
X77146884Y-58781035D01*
X77147486Y-58781142D01*
X77147502Y-58781145D01*
X77154898Y-58782458D01*
X77163724Y-58784025D01*
X77173206Y-58785450D01*
X77190231Y-58788009D01*
X77190248Y-58788011D01*
X77190705Y-58788080D01*
X77191168Y-58788137D01*
X77191175Y-58788138D01*
X77209032Y-58790338D01*
X77209040Y-58790339D01*
X77209406Y-58790384D01*
X77209759Y-58790420D01*
X77209783Y-58790423D01*
X77229569Y-58792457D01*
X77229591Y-58792459D01*
X77229980Y-58792499D01*
X77251037Y-58794236D01*
X77251221Y-58794250D01*
X77251227Y-58794250D01*
X77260070Y-58794900D01*
X77260087Y-58794901D01*
X77260221Y-58794911D01*
X77263634Y-58795131D01*
X77276715Y-58795806D01*
X77280753Y-58795963D01*
X77289637Y-58796232D01*
X77289721Y-58796234D01*
X77289765Y-58796235D01*
X77291945Y-58796282D01*
X77296457Y-58796379D01*
X77299240Y-58796429D01*
X77300003Y-58796443D01*
X77300014Y-58796443D01*
X77300116Y-58796445D01*
X77309544Y-58796581D01*
X77311452Y-58796605D01*
X77323310Y-58796732D01*
X77324552Y-58796743D01*
X77338666Y-58796860D01*
X77339530Y-58796867D01*
X77355724Y-58796974D01*
X77356365Y-58796978D01*
X77374435Y-58797075D01*
X77374462Y-58797075D01*
X77374789Y-58797076D01*
X77374951Y-58797077D01*
X77374961Y-58797077D01*
X77375261Y-58797078D01*
X77394722Y-58797164D01*
X77394787Y-58797164D01*
X77395167Y-58797166D01*
X77416546Y-58797244D01*
X77416768Y-58797245D01*
X77416907Y-58797245D01*
X77439662Y-58797312D01*
X77439931Y-58797312D01*
X77463888Y-58797370D01*
X77463888Y-58797400D01*
X77464144Y-58797378D01*
X77464144Y-58797371D01*
X77489126Y-58797419D01*
X77489338Y-58797419D01*
X77515169Y-58797458D01*
X77515387Y-58797459D01*
X77515402Y-58797459D01*
X77541908Y-58797487D01*
X77542089Y-58797487D01*
X77569093Y-58797506D01*
X77569285Y-58797506D01*
X77596612Y-58797515D01*
X77624441Y-58797515D01*
X77651886Y-58797505D01*
X77652076Y-58797505D01*
X77679316Y-58797485D01*
X77679493Y-58797485D01*
X77706353Y-58797456D01*
X77706560Y-58797455D01*
X77706624Y-58797455D01*
X77732459Y-58797417D01*
X77732864Y-58797416D01*
X77733067Y-58797416D01*
X77758640Y-58797368D01*
X77758884Y-58797368D01*
X77783303Y-58797311D01*
X77783351Y-58797310D01*
X77783560Y-58797310D01*
X77783799Y-58797396D01*
X77783799Y-58797309D01*
X77807381Y-58797242D01*
X77807693Y-58797241D01*
X77830016Y-58797164D01*
X77830110Y-58797164D01*
X77830359Y-58797163D01*
X77851248Y-58797077D01*
X77851691Y-58797075D01*
X77870969Y-58796979D01*
X77871494Y-58796976D01*
X77888986Y-58796871D01*
X77889706Y-58796866D01*
X77905237Y-58796751D01*
X77906189Y-58796743D01*
X77919582Y-58796619D01*
X77920991Y-58796604D01*
X77932071Y-58796471D01*
X77934394Y-58796438D01*
X77942870Y-58796298D01*
X77942894Y-58796298D01*
X77942985Y-58796296D01*
X77947664Y-58796197D01*
X77950286Y-58796130D01*
X77953334Y-58796052D01*
X77953425Y-58796049D01*
X77953591Y-58796045D01*
X77953745Y-58796040D01*
X77953832Y-58796037D01*
X77962991Y-58795717D01*
X77963088Y-58795713D01*
X77963102Y-58795713D01*
X77963177Y-58795710D01*
X77964465Y-58795653D01*
X77965406Y-58795611D01*
X77965762Y-58795588D01*
X77965790Y-58795586D01*
X77987233Y-58794172D01*
X77987240Y-58794171D01*
X77987611Y-58794147D01*
X78016643Y-58791600D01*
X78017206Y-58791533D01*
X78017215Y-58791532D01*
X78047779Y-58787891D01*
X78047807Y-58787887D01*
X78048346Y-58787823D01*
X78048889Y-58787741D01*
X78048912Y-58787738D01*
X78074385Y-58783896D01*
X78074396Y-58783894D01*
X78075093Y-58783789D01*
X78111672Y-58776907D01*
X78112305Y-58776764D01*
X78112334Y-58776758D01*
X78135690Y-58771481D01*
X78135699Y-58771479D01*
X78136446Y-58771310D01*
X78176649Y-58760498D01*
X78199765Y-58753264D01*
X78241565Y-58738168D01*
X78242293Y-58737869D01*
X78242303Y-58737865D01*
X78262834Y-58729429D01*
X78262852Y-58729421D01*
X78263337Y-58729222D01*
X78290769Y-58717000D01*
X78291221Y-58716783D01*
X78291246Y-58716771D01*
X78294143Y-58715377D01*
X78297621Y-58713704D01*
X78320594Y-58701934D01*
X78327134Y-58698373D01*
X78336776Y-58693123D01*
X78336792Y-58693114D01*
X78337484Y-58692737D01*
X78348201Y-58686276D01*
X78375423Y-58669863D01*
X78376105Y-58669452D01*
X78376754Y-58669021D01*
X78376771Y-58669010D01*
X78389892Y-58660291D01*
X78389893Y-58660290D01*
X78390673Y-58659772D01*
X78391404Y-58659230D01*
X78391426Y-58659215D01*
X78432065Y-58629107D01*
X78432844Y-58628530D01*
X78442594Y-58620504D01*
X78445144Y-58618405D01*
X78445157Y-58618394D01*
X78445729Y-58617923D01*
X78475584Y-58591331D01*
X78481548Y-58585587D01*
X78501542Y-58564524D01*
X78512647Y-58552826D01*
X78512652Y-58552820D01*
X78513222Y-58552220D01*
X78527304Y-58535987D01*
X78568254Y-58481951D01*
X78580059Y-58464028D01*
X78588119Y-58449862D01*
X78612526Y-58406961D01*
X78612526Y-58406960D01*
X78613137Y-58405887D01*
X78622707Y-58386180D01*
X78646678Y-58327986D01*
X78654058Y-58306400D01*
X78669456Y-58251616D01*
X78671730Y-58241377D01*
X78674562Y-58228629D01*
X78674569Y-58228594D01*
X78674688Y-58228059D01*
X78679120Y-58204580D01*
X78680672Y-58196354D01*
X78680675Y-58196335D01*
X78680787Y-58195743D01*
X78681889Y-58188667D01*
X78684278Y-58171401D01*
X78684525Y-58169362D01*
X78686269Y-58152691D01*
X78686497Y-58150104D01*
X78687411Y-58138143D01*
X78687621Y-58134894D01*
X78687815Y-58131445D01*
X78688093Y-58126518D01*
X78688106Y-58126263D01*
X78688288Y-58122473D01*
X78688300Y-58122193D01*
X78688546Y-58116328D01*
X78688557Y-58116031D01*
X78688727Y-58111313D01*
X78688872Y-58106713D01*
X78688878Y-58106509D01*
X78689032Y-58100796D01*
X78689035Y-58100689D01*
X78689109Y-58097572D01*
X78689110Y-58097533D01*
X78689255Y-58090538D01*
X78689301Y-58088083D01*
X78689433Y-58079819D01*
X78689436Y-58079601D01*
X78689436Y-58079597D01*
X78689460Y-58077871D01*
X78689577Y-58068264D01*
X78689592Y-58066883D01*
X78689697Y-58055817D01*
X78689706Y-58054724D01*
X78689799Y-58042088D01*
X78689805Y-58041213D01*
X78689886Y-58026891D01*
X78689889Y-58026249D01*
X78689960Y-58010129D01*
X78689962Y-58009576D01*
X78690022Y-57991544D01*
X78690022Y-57991543D01*
X78690023Y-57991144D01*
X78690023Y-57991140D01*
X78690074Y-57971134D01*
X78690074Y-57971084D01*
X78690075Y-57970773D01*
X78690118Y-57948697D01*
X78690118Y-57948575D01*
X78690119Y-57948294D01*
X78690153Y-57923844D01*
X78690153Y-57923666D01*
X78690181Y-57896849D01*
X78690181Y-57896681D01*
X78690202Y-57867384D01*
X78690202Y-57867258D01*
X78690217Y-57835366D01*
X78690217Y-57835272D01*
X78690227Y-57800673D01*
X78690227Y-57800607D01*
X78690233Y-57763187D01*
X78690233Y-57755107D01*
X78690260Y-57417340D01*
X78690260Y-57416012D01*
X78685033Y-57342892D01*
X78643856Y-57202655D01*
X78586873Y-57113989D01*
X78567744Y-57084223D01*
X78567743Y-57084222D01*
X78564837Y-57079700D01*
X78557304Y-57073172D01*
X78528439Y-57048161D01*
X78454379Y-56983987D01*
X78321430Y-56923271D01*
X78277683Y-56916981D01*
X78179420Y-56902853D01*
X78179414Y-56902853D01*
X78176760Y-56902471D01*
X78012575Y-56902471D01*
X78011266Y-56902565D01*
X78011254Y-56902565D01*
X77943814Y-56907386D01*
X77939536Y-56907692D01*
X77799296Y-56948858D01*
X77676334Y-57027867D01*
X77675635Y-57026779D01*
X77633163Y-57042996D01*
X77582738Y-57024637D01*
X77539891Y-56987509D01*
X77539889Y-56987508D01*
X77535826Y-56983987D01*
X77402877Y-56923271D01*
X77359130Y-56916981D01*
X77260867Y-56902853D01*
X77260861Y-56902853D01*
X77258207Y-56902471D01*
X77092447Y-56902471D01*
X77091123Y-56902567D01*
X77091113Y-56902567D01*
X77061895Y-56904678D01*
X77018636Y-56907803D01*
X77014753Y-56908949D01*
X77012402Y-56909376D01*
X76988309Y-56909827D01*
X76936936Y-56902471D01*
X76794198Y-56902553D01*
X76793518Y-56902577D01*
X76793515Y-56902577D01*
X76762014Y-56903686D01*
X76762010Y-56903687D01*
X76758674Y-56903804D01*
X76755415Y-56904507D01*
X76755411Y-56904508D01*
X76651564Y-56926926D01*
X76615807Y-56934645D01*
X76611084Y-56937214D01*
X76611082Y-56937215D01*
X76518626Y-56987510D01*
X76487417Y-57004487D01*
X76485268Y-57006091D01*
X76485264Y-57006093D01*
X76456395Y-57027633D01*
X76403641Y-57066994D01*
X76399030Y-57070434D01*
X76349767Y-57085239D01*
X76304815Y-57066994D01*
X76209020Y-56983987D01*
X76076071Y-56923271D01*
X76032324Y-56916981D01*
X75934061Y-56902853D01*
X75934055Y-56902853D01*
X75931401Y-56902471D01*
X75787930Y-56902471D01*
X75714851Y-56907698D01*
X75710979Y-56908835D01*
X75707015Y-56909550D01*
X75706895Y-56908886D01*
X75680178Y-56910797D01*
X75646720Y-56905987D01*
X75622265Y-56902471D01*
X75458079Y-56902471D01*
X75408223Y-56906037D01*
X75389025Y-56907410D01*
X75389024Y-56907410D01*
X75385000Y-56907698D01*
X75381132Y-56908834D01*
X75377162Y-56909550D01*
X75377061Y-56908991D01*
X75349839Y-56910940D01*
X75348845Y-56910797D01*
X75347168Y-56910556D01*
X75293595Y-56902853D01*
X75293589Y-56902853D01*
X75290935Y-56902471D01*
X74399006Y-56902471D01*
X74359086Y-56905327D01*
X74343853Y-56906416D01*
X74327793Y-56905843D01*
X74304340Y-56902471D01*
X74140154Y-56902471D01*
X74067075Y-56907698D01*
X74063203Y-56908835D01*
X74059239Y-56909550D01*
X74059119Y-56908886D01*
X74032402Y-56910797D01*
X73998944Y-56905987D01*
X73974489Y-56902471D01*
X73081081Y-56902471D01*
X73036750Y-56905642D01*
X73012025Y-56907410D01*
X73012023Y-56907410D01*
X73008002Y-56907698D01*
X73006535Y-56908129D01*
X72984161Y-56908528D01*
X72944682Y-56902854D01*
X72944676Y-56902854D01*
X72942014Y-56902471D01*
X72939322Y-56902471D01*
X72527482Y-56902493D01*
X72527415Y-56902493D01*
X72483801Y-56902501D01*
X72483661Y-56902501D01*
X72441988Y-56902520D01*
X72441860Y-56902520D01*
X72402190Y-56902548D01*
X72402019Y-56902548D01*
X72364413Y-56902587D01*
X72364237Y-56902587D01*
X72328758Y-56902636D01*
X72328663Y-56902636D01*
X72328496Y-56902637D01*
X72295803Y-56902695D01*
X72295266Y-56902696D01*
X72295051Y-56902696D01*
X72264011Y-56902764D01*
X72264011Y-56902750D01*
X72263760Y-56902661D01*
X72263760Y-56902765D01*
X72235032Y-56902842D01*
X72234713Y-56902843D01*
X72208360Y-56902930D01*
X72208257Y-56902930D01*
X72208015Y-56902931D01*
X72184097Y-56903026D01*
X72183644Y-56903028D01*
X72162224Y-56903132D01*
X72161668Y-56903135D01*
X72142808Y-56903247D01*
X72142031Y-56903252D01*
X72125793Y-56903373D01*
X72124732Y-56903382D01*
X72111177Y-56903511D01*
X72109604Y-56903529D01*
X72106376Y-56903570D01*
X72099015Y-56903662D01*
X72098965Y-56903663D01*
X72098794Y-56903665D01*
X72095950Y-56903708D01*
X72087949Y-56903853D01*
X72082154Y-56903991D01*
X72077021Y-56904142D01*
X72076780Y-56904152D01*
X72076744Y-56904153D01*
X72065794Y-56904598D01*
X72065727Y-56904601D01*
X72065535Y-56904609D01*
X72064204Y-56904678D01*
X72063875Y-56904701D01*
X72063844Y-56904703D01*
X72045588Y-56905987D01*
X72045565Y-56905989D01*
X72045293Y-56906008D01*
X72030269Y-56907344D01*
X72012999Y-56908880D01*
X72012960Y-56908884D01*
X72012499Y-56908925D01*
X71986565Y-56911898D01*
X71956338Y-56916144D01*
X71955786Y-56916238D01*
X71955776Y-56916240D01*
X71926639Y-56921225D01*
X71926090Y-56921319D01*
X71925563Y-56921425D01*
X71925544Y-56921429D01*
X71905363Y-56925506D01*
X71898334Y-56926926D01*
X71897728Y-56927071D01*
X71897708Y-56927075D01*
X71866594Y-56934500D01*
X71863472Y-56935245D01*
X71838094Y-56942245D01*
X71798597Y-56954876D01*
X71775505Y-56963303D01*
X71774711Y-56963635D01*
X71774708Y-56963636D01*
X71732768Y-56981163D01*
X71732758Y-56981168D01*
X71731991Y-56981488D01*
X71711089Y-56991374D01*
X71710257Y-56991821D01*
X71710245Y-56991827D01*
X71677157Y-57009602D01*
X71664823Y-57016228D01*
X71646019Y-57027605D01*
X71599086Y-57059678D01*
X71582286Y-57072579D01*
X71581598Y-57073161D01*
X71581585Y-57073172D01*
X71563907Y-57088140D01*
X71544916Y-57104220D01*
X71535021Y-57113443D01*
X71504533Y-57144371D01*
X71493224Y-57156858D01*
X71460514Y-57196847D01*
X71450652Y-57210224D01*
X71450116Y-57211036D01*
X71450104Y-57211054D01*
X71425493Y-57248377D01*
X71421086Y-57255060D01*
X71412526Y-57269648D01*
X71388729Y-57315303D01*
X71381328Y-57331426D01*
X71381025Y-57332172D01*
X71375040Y-57346909D01*
X71364121Y-57373792D01*
X71357736Y-57391770D01*
X71346307Y-57428187D01*
X71340795Y-57448345D01*
X71340670Y-57448863D01*
X71340665Y-57448881D01*
X71336608Y-57465648D01*
X71333678Y-57477754D01*
X71328896Y-57500414D01*
X71328856Y-57500619D01*
X71328850Y-57500648D01*
X71327475Y-57507679D01*
X71325970Y-57515376D01*
X71324843Y-57521630D01*
X71322867Y-57533376D01*
X71322526Y-57535557D01*
X71320151Y-57552617D01*
X71319840Y-57555163D01*
X71318203Y-57570468D01*
X71317922Y-57573528D01*
X71316960Y-57585542D01*
X71316706Y-57589266D01*
X71316169Y-57598318D01*
X71315940Y-57602854D01*
X71315647Y-57609522D01*
X71315642Y-57609645D01*
X71315441Y-57615021D01*
X71315282Y-57619880D01*
X71315097Y-57626491D01*
X71315013Y-57629889D01*
X71315010Y-57630029D01*
X71315007Y-57630153D01*
X71314844Y-57637901D01*
X71314844Y-57637907D01*
X71314840Y-57638096D01*
X71314795Y-57640541D01*
X71314647Y-57649824D01*
X71314621Y-57651665D01*
X71314487Y-57662509D01*
X71314471Y-57663945D01*
X71314351Y-57676498D01*
X71314350Y-57676567D01*
X71314343Y-57677488D01*
X71314233Y-57691901D01*
X71314228Y-57692693D01*
X71314128Y-57709115D01*
X71314125Y-57709644D01*
X71314031Y-57728224D01*
X71314029Y-57728659D01*
X71313942Y-57749350D01*
X71313941Y-57749547D01*
X71313939Y-57749840D01*
X71313854Y-57773185D01*
X71313854Y-57773393D01*
X71313770Y-57799345D01*
X71313769Y-57799566D01*
X71313768Y-57799728D01*
X71313684Y-57828195D01*
X71313684Y-57828237D01*
X71313653Y-57839009D01*
X71313653Y-57839190D01*
X71313569Y-57872381D01*
X71313569Y-57872442D01*
X71313568Y-57872742D01*
X71313522Y-57896681D01*
X71313509Y-57903119D01*
X71313508Y-57903520D01*
X71313476Y-57931105D01*
X71313476Y-57931598D01*
X71313471Y-57956473D01*
X69502609Y-57956473D01*
X69443267Y-57813209D01*
X69443266Y-57813208D01*
X69442139Y-57810486D01*
X69312305Y-57598616D01*
X69311389Y-57597121D01*
X69309849Y-57594608D01*
X69305287Y-57589266D01*
X69147325Y-57404317D01*
X69145417Y-57402083D01*
X69062688Y-57331426D01*
X68955132Y-57239564D01*
X68955131Y-57239563D01*
X68952892Y-57237651D01*
X68737014Y-57105361D01*
X68734291Y-57104233D01*
X68505833Y-57009602D01*
X68505828Y-57009600D01*
X68503099Y-57008470D01*
X68500222Y-57007779D01*
X68500218Y-57007778D01*
X68259781Y-56950055D01*
X68256907Y-56949365D01*
X68253963Y-56949133D01*
X68253961Y-56949133D01*
X68069509Y-56934616D01*
X68069501Y-56934616D01*
X68068031Y-56934500D01*
X67940969Y-56934500D01*
X67939499Y-56934616D01*
X67939491Y-56934616D01*
X67755039Y-56949133D01*
X67755037Y-56949133D01*
X67752093Y-56949365D01*
X67749219Y-56950055D01*
X67508782Y-57007778D01*
X67508778Y-57007779D01*
X67505901Y-57008470D01*
X67503172Y-57009600D01*
X67503167Y-57009602D01*
X67274709Y-57104233D01*
X67271986Y-57105361D01*
X67056108Y-57237651D01*
X67053869Y-57239563D01*
X67053868Y-57239564D01*
X66946312Y-57331426D01*
X66863583Y-57402083D01*
X66861675Y-57404317D01*
X66703714Y-57589266D01*
X66699151Y-57594608D01*
X66697611Y-57597121D01*
X66696695Y-57598616D01*
X66566861Y-57810486D01*
X66565734Y-57813208D01*
X66565733Y-57813209D01*
X66471291Y-58041213D01*
X66469970Y-58044401D01*
X66469279Y-58047278D01*
X66469278Y-58047282D01*
X66414642Y-58274860D01*
X66410865Y-58290593D01*
X66410633Y-58293537D01*
X66410633Y-58293539D01*
X66398491Y-58447816D01*
X66391000Y-58543000D01*
X66161927Y-58543000D01*
X66163474Y-58458011D01*
X66163654Y-58454015D01*
X66168688Y-58383638D01*
X66169261Y-58378301D01*
X66187620Y-58250610D01*
X66197203Y-58183958D01*
X66198155Y-58178686D01*
X66198156Y-58178685D01*
X66203744Y-58152995D01*
X66210052Y-58124002D01*
X66211379Y-58118802D01*
X66266689Y-57930430D01*
X66268384Y-57925336D01*
X66268941Y-57923844D01*
X66279072Y-57896681D01*
X66287947Y-57872886D01*
X66290002Y-57867927D01*
X66371563Y-57689333D01*
X66373966Y-57684532D01*
X66400774Y-57635437D01*
X66403513Y-57630821D01*
X66509663Y-57465647D01*
X66512725Y-57461237D01*
X66546273Y-57416423D01*
X66549640Y-57412244D01*
X66678202Y-57263874D01*
X66681861Y-57259945D01*
X66721454Y-57220352D01*
X66725383Y-57216694D01*
X66873736Y-57088146D01*
X66877915Y-57084778D01*
X66922738Y-57051223D01*
X66927148Y-57048161D01*
X67092300Y-56942025D01*
X67096916Y-56939286D01*
X67146038Y-56912463D01*
X67150839Y-56910060D01*
X67329428Y-56828502D01*
X67334387Y-56826447D01*
X67386829Y-56806887D01*
X67391923Y-56805192D01*
X67580304Y-56749878D01*
X67585504Y-56748551D01*
X67600581Y-56745271D01*
X67640204Y-56736652D01*
X67645456Y-56735703D01*
X67746607Y-56721160D01*
X67839800Y-56707761D01*
X67845137Y-56707188D01*
X67915516Y-56702154D01*
X67919512Y-56701974D01*
X68021100Y-56700124D01*
X68021102Y-56700124D01*
X68026025Y-56700034D01*
X68031955Y-56698329D01*
X68052736Y-56695400D01*
X81956265Y-56695400D01*
X81977046Y-56698329D01*
G37*
G04 #@! TD.AperFunction*
M02*
